<svg width="28" height="28" viewBox="0 0 28 28" fill="none" xmlns="http://www.w3.org/2000/svg">
<path d="M13.9993 27.9986C21.7309 27.9986 27.9986 21.7309 27.9986 13.9993C27.9986 6.26771 21.7309 0 13.9993 0C6.26771 0 0 6.26771 0 13.9993C0 21.7309 6.26771 27.9986 13.9993 27.9986Z" fill="#F26635"/>
<path opacity="0.15" d="M27.9987 13.9994C27.9989 16.5846 27.2833 19.1193 25.9312 21.3227C24.5792 23.5261 22.6434 25.312 20.3384 26.4826C18.0335 27.6532 15.4494 28.1627 12.8726 27.9547C10.2959 27.7466 7.82701 26.8291 5.73975 25.3039C8.85525 27.023 12.5085 27.4913 15.9569 26.6135C19.4053 25.7357 22.39 23.5776 24.3043 20.578C26.2186 17.5785 26.9188 13.9625 26.2626 10.4651C25.6064 6.96781 23.643 3.85161 20.7715 1.75C22.9606 2.95997 24.7855 4.73433 26.0565 6.88855C27.3275 9.04278 27.9982 11.4982 27.9987 13.9994Z" fill="#020202"/>
<path opacity="0.2" d="M17.2804 8.88543C17.2801 10.8267 16.7631 12.7329 15.7825 14.4082C14.8019 16.0836 13.3931 17.4678 11.7007 18.4187C10.0082 19.3696 8.09322 19.8528 6.15227 19.8189C4.21131 19.785 2.31437 19.2351 0.656219 18.2256C0.2209 16.8592 -0.000456023 15.4336 7.05337e-07 13.9996C-2.19175e-05 13.335 0.0467582 12.6713 0.139994 12.0134C0.58861 8.8841 2.08317 5.99876 4.38042 3.82703C6.67766 1.65529 9.64233 0.325016 12.7919 0.0527344C14.184 1.06634 15.3164 2.39505 16.0965 3.93022C16.8767 5.46539 17.2824 7.16341 17.2804 8.88543Z" fill="white"/>
<path opacity="0.15" d="M13.2907 8.88521C13.2909 10.4483 12.7639 11.9657 11.795 13.1923C10.8261 14.4188 9.47182 15.2827 7.95117 15.6444C6.43052 16.0061 4.83233 15.8445 3.41493 15.1855C1.99754 14.5266 0.843773 13.4089 0.140137 12.0132C0.436351 9.94022 1.19383 7.96012 2.35678 6.21872C3.51973 4.47733 5.05852 3.019 6.85981 1.95117C8.60915 2.08152 10.2444 2.86882 11.4373 4.15501C12.6301 5.44119 13.2923 7.13102 13.2907 8.88521Z" fill="#F1F2F2"/>
<path d="M6.95154 9.54163C6.41217 10.6759 5.98859 11.8616 5.68722 13.0808C6.75711 13.673 7.69024 14.4839 8.42584 15.4607C10.1792 17.558 11.7386 19.81 13.085 22.1891C14.1689 24.2034 15.85 25.8325 17.8973 26.8527C18.1532 26.9797 18.4161 27.0921 18.6847 27.1895C18.1938 27.3655 17.6927 27.5116 17.1842 27.627C15.0697 26.5043 13.3345 24.7813 12.1969 22.6747C10.8735 20.3595 9.35115 18.1639 7.64713 16.1126C7.0422 15.323 6.30151 14.6475 5.45973 14.1177C4.85601 17.2194 4.86476 20.9467 5.89721 25.4265C5.46412 25.123 5.04926 24.7943 4.65477 24.4422C3.8893 20.905 3.85506 17.2486 4.55415 13.6977C4.10726 13.5304 3.63562 13.4387 3.1586 13.4264C2.03186 13.4369 0.933206 13.7793 0 14.4108C0 14.2752 0 14.1352 0 13.9995C0 13.7371 0 13.4702 0.0262487 13.2165C0.992496 12.6803 2.07982 12.4002 3.18485 12.4027C3.73051 12.4171 4.27065 12.516 4.78602 12.6959C5.09656 11.5111 5.51841 10.3583 6.04596 9.25289C3.6967 8.53543 1.99928 8.15482 1.33869 8.02358C1.48743 7.70422 1.6493 7.39361 1.82429 7.08737C2.673 7.27112 4.32666 7.66485 6.50531 8.33856C6.99574 7.44141 7.55599 6.58423 8.18085 5.77494C7.78759 5.69133 7.41738 5.52269 7.09619 5.28086C6.775 5.03902 6.51061 4.72984 6.32157 4.37501C6.05545 3.78146 5.96001 3.12549 6.04596 2.48072C6.42084 2.21479 6.81086 1.97085 7.21403 1.75013C6.96169 2.45743 6.96169 3.23023 7.21403 3.93753C7.48089 4.45813 8.00149 4.76874 8.81957 4.90435H8.87207C10.6132 2.90512 12.7203 1.25691 15.0799 0.0483398C15.7053 0.092153 16.3267 0.181342 16.9392 0.315202C14.2657 1.35726 11.8698 3.00439 9.93952 5.12747C11.3132 5.32871 14.2006 5.56495 19.3716 5.20621C21.2946 5.08467 23.2252 5.18744 25.1244 5.51245C25.4233 5.90249 25.7008 6.30849 25.9556 6.72864C23.8207 6.25187 21.6289 6.081 19.4459 6.22117C13.3212 6.65865 10.3201 6.25616 9.16955 6.0243C8.51094 6.84664 7.92541 7.72494 7.41964 8.64917C12.5819 10.3335 20.1853 13.4833 27.1062 18.9605C26.983 19.2856 26.8428 19.6039 26.6862 19.9143C19.7565 14.3495 12.0875 11.1997 6.95154 9.54163Z" fill="#3A3A3A"/>
</svg>
