<svg width="30" height="30" viewBox="0 0 30 30" fill="none" xmlns="http://www.w3.org/2000/svg">
<path d="M5.92359 8.5874V4.30092C5.92359 3.93787 5.62928 3.64355 5.26623 3.64355H3.07582C2.71277 3.64355 2.41846 3.93787 2.41846 4.30092V8.5874" fill="#E5E9EA"/>
<path d="M4.01027 8.5874V3.64355H3.07582C2.71277 3.64355 2.41846 3.93787 2.41846 4.30092V8.5874" fill="#D1D1D1"/>
<path d="M30 9.36842V25.4062C30 26.5057 29.1086 27.3972 28.009 27.3972H1.99102C0.891445 27.3972 0 26.5057 0 25.4062V9.36842C0 8.26885 0.891445 7.3774 1.99102 7.3774H5.92793C6.7759 7.3774 7.53141 6.84045 7.80937 6.03906L8.53611 3.94152C8.81408 3.14008 9.56894 2.60254 10.4176 2.60254H22.0317C22.8796 2.60254 23.6345 3.14008 23.9125 3.94152L24.6398 6.03906C24.9178 6.84051 25.6726 7.3774 26.5206 7.3774H28.0089C29.1086 7.3774 30 8.26885 30 9.36842Z" fill="#FCB65F"/>
<path d="M3.55225 27.3967H1.99102C0.891445 27.3967 0 26.5053 0 25.4057V9.36797C0 8.2684 0.891445 7.37695 1.99102 7.37695H3.42855V7.38064C2.38652 7.44492 1.56123 8.31006 1.56123 9.36797V25.4057C1.56123 26.5054 2.45268 27.3967 3.55225 27.3967Z" fill="#E29A4B"/>
<path d="M11.9789 2.60254C11.1303 2.60254 10.3754 3.14008 10.0974 3.94152L9.3707 6.03906C9.09273 6.84051 8.33723 7.3774 7.48926 7.3774H6.15332V7.36457C6.9076 7.27885 7.55658 6.76885 7.80941 6.03906L8.53615 3.94152C8.81412 3.14008 9.56898 2.60254 10.4176 2.60254C10.4177 2.60254 11.9789 2.60254 11.9789 2.60254Z" fill="#E29A4B"/>
<path d="M30 12.7959V25.4063C30 26.5059 29.1086 27.3973 28.009 27.3973H1.99102C0.891445 27.3973 0 26.5059 0 25.4063V12.7959H30Z" fill="#53BCE9"/>
<path d="M3.55225 27.3973H1.99102C0.891445 27.3973 0 26.5058 0 25.4063V12.7959H1.56123V25.4063C1.56123 26.5059 2.45268 27.3973 3.55225 27.3973Z" fill="#36A6CE"/>
<path d="M14.9999 25.53C19.5812 25.53 23.2952 21.8161 23.2952 17.2347C23.2952 12.6534 19.5812 8.93945 14.9999 8.93945C10.4185 8.93945 6.70459 12.6534 6.70459 17.2347C6.70459 21.8161 10.4185 25.53 14.9999 25.53Z" fill="#E5E9EA"/>
<path d="M20.8654 17.2345C20.8654 18.9617 20.1191 20.5143 18.9307 21.5882C17.8906 22.528 16.513 23.1004 15.0002 23.1004C13.4879 23.1004 12.1097 22.5279 11.0696 21.5881C9.88123 20.5149 9.13428 18.9616 9.13428 17.2344C9.13428 15.5073 9.88123 13.954 11.0696 12.8814C12.1098 11.941 13.4879 11.3691 15.0002 11.3691C16.513 11.3691 17.8906 11.9416 18.9307 12.8814C20.1191 13.9547 20.8654 15.5073 20.8654 17.2345Z" fill="#566368"/>
<path d="M19.1466 13.0868C20.3679 14.308 20.9381 15.9337 20.8571 17.5333C19.2574 17.6142 17.6318 17.0441 16.4106 15.8229C15.1893 14.6016 14.6191 12.976 14.7005 11.3768C16.2997 11.2954 17.9254 11.8656 19.1466 13.0868Z" fill="#6F7B7F"/>
<path d="M13.5881 18.6454C14.8094 19.8667 15.3796 21.4923 15.2986 23.092C13.6993 23.1734 12.0728 22.6033 10.8516 21.3819C9.63035 20.1607 9.06018 18.5342 9.14197 16.9354C10.7412 16.8539 12.3669 17.4241 13.5881 18.6454Z" fill="#6F7B7F"/>
<path d="M15 23.5596C11.5126 23.5596 8.67529 20.7223 8.67529 17.2349C8.67529 13.7474 11.5126 10.9102 15 10.9102C18.4875 10.9102 21.3247 13.7474 21.3247 17.2349C21.3247 20.7224 18.4875 23.5596 15 23.5596ZM15 11.8285C12.0189 11.8285 9.59363 14.2538 9.59363 17.2349C9.59363 20.216 12.0189 22.6413 15 22.6413C17.9811 22.6413 20.4064 20.216 20.4064 17.2349C20.4064 14.2538 17.9811 11.8285 15 11.8285Z" fill="#435054"/>
<path d="M15.0001 14.8799C13.7018 14.8799 12.6455 15.9362 12.6455 17.2345C12.6455 18.5329 13.7018 19.5891 15.0001 19.5891C16.2984 19.5891 17.3547 18.5329 17.3547 17.2345C17.3547 15.9362 16.2984 14.8799 15.0001 14.8799Z" fill="#435054"/>
<path d="M17.9801 6.91906H21.5885C22.0628 6.91906 22.4474 6.53451 22.4474 6.06008V5.11484C22.4474 4.64047 22.0629 4.25586 21.5885 4.25586H17.9801C17.5057 4.25586 17.1211 4.64041 17.1211 5.11484V6.06008C17.1211 6.53445 17.5057 6.91906 17.9801 6.91906Z" fill="#E5E9EA"/>
<path d="M21.5882 7.37738H17.9798C17.2529 7.37738 16.6616 6.78605 16.6616 6.0592V5.11408C16.6616 4.38723 17.2529 3.7959 17.9798 3.7959H21.5882C22.315 3.7959 22.9064 4.38723 22.9064 5.11408V6.05926C22.9063 6.78611 22.315 7.37738 21.5882 7.37738ZM17.9798 4.71424C17.7593 4.71424 17.58 4.89359 17.58 5.11402V6.0592C17.58 6.27969 17.7593 6.45898 17.9798 6.45898H21.5882C21.8087 6.45898 21.988 6.27963 21.988 6.0592V5.11408C21.988 4.89359 21.8086 4.7143 21.5882 4.7143L17.9798 4.71424Z" fill="#E29A4B"/>
<path d="M5.70291 25.6978C6.61994 25.6978 7.36334 24.9544 7.36334 24.0374C7.36334 23.1204 6.61994 22.377 5.70291 22.377C4.78588 22.377 4.04248 23.1204 4.04248 24.0374C4.04248 24.9544 4.78588 25.6978 5.70291 25.6978Z" fill="#566368"/>
</svg>
