<svg width="66" height="66" viewBox="0 0 66 66" fill="none" xmlns="http://www.w3.org/2000/svg">
<g clip-path="url(#clip0_1775_6772)">
<path d="M33 66C51.2254 66 66 51.2254 66 33C66 14.7746 51.2254 0 33 0C14.7746 0 0 14.7746 0 33C0 51.2254 14.7746 66 33 66Z" fill="#FFCF48"/>
<path d="M57.6789 25.7115C51.9721 27.7995 50.278 29.4936 48.19 35.2004C46.102 29.4936 44.408 27.7995 38.7012 25.7115C44.408 23.6235 46.102 21.9295 48.19 16.2227C50.278 21.9295 51.9721 23.6235 57.6789 25.7115Z" fill="#23294D"/>
<path d="M47.9764 38.0792C47.5233 38.0173 47.1068 38.324 47.028 38.7715C46.8001 40.0941 46.4089 41.3688 45.8715 42.5507C45.3396 43.6819 44.6192 44.7794 43.7356 45.8093L43.0715 46.5297L42.1738 47.3458L41.2115 48.0774L40.1787 48.7275C40.1506 48.7444 40.1196 48.7584 40.0887 48.7725L39.1235 49.265L38.8027 49.3972C38.3074 49.6026 37.8374 49.794 37.3591 49.9178C37.3478 49.9178 37.3366 49.9234 37.3253 49.9262L37.2099 49.96C36.9454 50.0416 36.695 50.1176 36.4333 50.1598C36.3066 50.1823 36.1828 50.2105 36.0562 50.2358C35.8676 50.2752 35.6791 50.3146 35.4906 50.3427L34.3002 50.4694L33.5742 50.4778C32.3642 50.5031 31.1232 50.3427 29.8738 49.991C27.5128 49.3297 25.3122 47.9621 23.6717 46.1386C23.6435 46.1076 23.6126 46.0767 23.5816 46.0457C23.2102 45.6855 22.7234 45.4885 22.2084 45.4885C22.1999 45.4885 22.1887 45.4885 22.1802 45.4885C21.654 45.497 21.1616 45.708 20.7957 46.0851C20.0388 46.8646 20.0557 48.114 20.8408 48.8766C23.1004 51.0716 26.0242 52.6333 29.0746 53.2693C30.203 53.5057 31.323 53.6239 32.4176 53.6239C32.8566 53.6239 33.29 53.6042 33.7205 53.5676L34.545 53.5029C34.5704 53.5029 34.5929 53.4972 34.6182 53.4944L35.9774 53.258C35.9774 53.258 36.0027 53.2524 36.0168 53.2496C36.2729 53.1933 36.5177 53.1258 36.7569 53.0582C36.8751 53.0273 36.9904 52.9935 37.0861 52.9682C37.4604 52.881 37.8009 52.7515 38.1301 52.6277L38.2145 52.5968C38.8421 52.3857 39.4189 52.1015 39.9761 51.8285L40.2913 51.6738C40.3138 51.6625 40.3335 51.6512 40.3532 51.64L41.369 51.0322C41.4309 50.9956 41.49 50.959 41.552 50.9196C41.5632 50.914 41.5717 50.9055 41.5829 50.8999L42.6804 50.1035C42.7001 50.0895 42.7198 50.0754 42.7367 50.0585L43.7553 49.1721C43.7722 49.1552 43.7891 49.1411 43.806 49.1243L44.743 48.1534C44.7599 48.1365 44.7768 48.1168 44.7909 48.0999L45.4663 47.2642C45.4663 47.2642 45.4775 47.2473 45.4831 47.2417C46.4202 45.9951 47.1631 44.6809 47.6921 43.3246C48.2127 41.9485 48.5532 40.4937 48.708 39.005C48.7558 38.552 48.435 38.1439 47.982 38.082L47.9764 38.0792Z" fill="#23294D"/>
<path d="M54.544 66.0004V62.4463H53.2158V61.9707H56.4097V62.4463H55.0759V66.0004H54.544Z" fill="#23294D"/>
<path d="M56.9388 66.0004V61.9707H57.7408L58.6948 64.8241C58.782 65.0886 58.8468 65.2884 58.8861 65.4207C58.9312 65.2744 59.0043 65.0577 59.1 64.7763L60.0652 61.9735H60.7828V66.0032H60.2678V62.632L59.0972 66.0032H58.616L57.451 62.5729V66.0032H56.936L56.9388 66.0004Z" fill="#23294D"/>
</g>
<defs>
<clipPath id="clip0_1775_6772">
<rect width="66" height="66" fill="white"/>
</clipPath>
</defs>
</svg>
