<svg width="244" height="59" viewBox="0 0 244 59" fill="none" xmlns="http://www.w3.org/2000/svg">
<g clip-path="url(#clip0_1775_6738)">
<path d="M29.2552 59C45.4123 59 58.5103 45.7924 58.5103 29.5C58.5103 13.2076 45.4123 0 29.2552 0C13.098 0 0 13.2076 0 29.5C0 45.7924 13.098 59 29.2552 59Z" fill="#FFCF48"/>
<path d="M51.1337 22.9844C46.0745 24.851 44.5727 26.3653 42.7216 31.4669C40.8706 26.3653 39.3688 24.851 34.3096 22.9844C39.3688 21.1179 40.8706 19.6035 42.7216 14.502C44.5727 19.6035 46.0745 21.1179 51.1337 22.9844Z" fill="#23294D"/>
<path d="M42.5319 34.0403C42.1303 33.985 41.7611 34.2592 41.6912 34.6591C41.4891 35.8414 41.1424 36.981 40.6659 38.0375C40.1944 39.0488 39.5558 40.0299 38.7724 40.9505L38.1837 41.5945L37.3879 42.324L36.5347 42.9781L35.6192 43.5592C35.5942 43.5743 35.5668 43.5869 35.5393 43.5994L34.6837 44.0397L34.3993 44.1579C33.9602 44.3415 33.5436 44.5126 33.1195 44.6233C33.1095 44.6233 33.0995 44.6283 33.0895 44.6308L32.9873 44.661C32.7528 44.734 32.5307 44.8019 32.2987 44.8396C32.1865 44.8597 32.0767 44.8849 31.9644 44.9075C31.7973 44.9427 31.6302 44.978 31.463 45.0031L30.4078 45.1163L29.7641 45.1239C28.6914 45.1465 27.5913 45.0031 26.4836 44.6887C24.3906 44.0975 22.4397 42.875 20.9853 41.2449C20.9604 41.2172 20.933 41.1895 20.9055 41.1619C20.5762 40.8399 20.1446 40.6638 19.6881 40.6638C19.6806 40.6638 19.6706 40.6638 19.6632 40.6638C19.1967 40.6713 18.7601 40.86 18.4358 41.1971C17.7647 41.8939 17.7797 43.0108 18.4757 43.6925C20.4789 45.6547 23.0709 47.0508 25.7751 47.6193C26.7755 47.8306 27.7684 47.9363 28.7388 47.9363C29.128 47.9363 29.5122 47.9187 29.8939 47.886L30.6248 47.8281C30.6473 47.8281 30.6672 47.8231 30.6897 47.8205L31.8946 47.6092C31.8946 47.6092 31.917 47.6042 31.9295 47.6017C32.1565 47.5514 32.3736 47.491 32.5856 47.4306C32.6904 47.403 32.7927 47.3728 32.8775 47.3501C33.2093 47.2722 33.5111 47.1564 33.803 47.0458L33.8779 47.0181C34.4342 46.8294 34.9456 46.5753 35.4395 46.3313L35.7189 46.193C35.7389 46.1829 35.7564 46.1729 35.7738 46.1628L36.6744 45.6194C36.7293 45.5867 36.7817 45.554 36.8366 45.5188C36.8465 45.5138 36.854 45.5062 36.864 45.5012L37.8369 44.7893C37.8544 44.7767 37.8719 44.7641 37.8868 44.749L38.7899 43.9566C38.8049 43.9416 38.8198 43.929 38.8348 43.9139L39.6655 43.046C39.6805 43.0309 39.6955 43.0133 39.7079 42.9982L40.3067 42.2511C40.3067 42.2511 40.3166 42.236 40.3216 42.231C41.1524 41.1166 41.811 39.9418 42.28 38.7293C42.7415 37.4992 43.0433 36.1987 43.1805 34.8679C43.223 34.4629 42.9386 34.0982 42.5369 34.0428L42.5319 34.0403Z" fill="#23294D"/>
<path d="M76.6966 41.9901C75.7661 40.3474 75.4742 38.4129 75.4742 37.1803C75.4742 35.832 75.8809 34.4232 77.1033 32.8988C74.6011 30.7883 73.3812 28.0312 73.3812 24.8037C73.3812 18.4696 77.5698 13.6598 85.0139 13.6598C87.9801 13.6598 90.3076 14.422 92.8073 15.6546C94.3789 13.4837 96.2974 12.4297 97.9264 12.4297C99.9047 12.4297 101.708 13.8963 101.708 15.8307C101.708 16.8269 101.184 17.5916 100.778 17.9413C98.7421 19.76 98.1609 20.2883 98.1609 21.931V25.2163C98.1609 31.2587 94.1469 35.8923 85.655 35.8923C84.7245 35.8923 83.5021 35.8345 82.4568 35.598C82.165 36.3602 82.1076 36.5363 82.1076 36.9464C82.1076 38.589 83.0381 38.823 83.7366 38.823H86.1789C93.7403 38.823 99.5579 41.6379 99.5579 47.8564C99.5579 54.0748 93.8002 57.9438 85.8895 57.9438C77.9789 57.9438 72.9771 54.3063 72.9771 48.4425C72.9771 46.1558 73.9649 44.2188 76.6991 41.9901H76.6966ZM82.0477 45.3911C81.3492 46.2715 81 46.9155 81 47.8538C81 50.0248 82.629 51.3153 86.0018 51.3153C89.3746 51.3153 91.5275 50.0826 91.5275 48.0299C91.5275 46.269 89.8985 45.449 86.2912 45.449L82.0452 45.3911H82.0477ZM86.0043 20.1701C83.0381 20.1701 81.4091 21.8706 81.4091 24.922C81.4091 27.7369 82.7462 29.5556 85.887 29.5556C88.7958 29.5556 90.133 27.913 90.133 25.2741V21.1688C88.6212 20.5248 87.3414 20.1726 86.0043 20.1726V20.1701Z" fill="#23294D"/>
<path d="M128.291 36.7093C128.291 38.4702 129.165 38.2941 130.152 38.7041C131.026 39.0563 131.49 39.7003 131.49 40.9329C131.49 42.8095 130.384 43.9818 127.301 43.9818C125.148 43.9818 123.694 43.3956 122.357 41.519C120.204 43.2799 117.761 44.1579 114.503 44.1579C107.755 44.1579 104.15 40.4625 104.15 34.8905V34.7144C104.15 28.7324 107.99 25.7414 115.668 25.7414C117.24 25.7414 118.752 25.8597 120.264 26.3276V24.4509C120.264 21.6939 118.809 20.4034 115.843 20.4034C114.214 20.4034 113.226 20.8134 112.061 21.3417C111.595 21.5178 110.956 21.9278 109.851 21.9278C107.408 21.9278 106.478 19.9934 106.478 18.5268C106.478 15.0654 111.597 13.6592 116.424 13.6592C124.859 13.6592 128.291 17.8828 128.291 25.8018V36.7118V36.7093ZM112.118 34.7748V34.9509C112.118 36.8854 113.224 37.6501 115.726 37.6501C117.238 37.6501 118.749 37.2979 120.264 36.1257V31.902C118.809 31.6077 117.297 31.4316 116.132 31.4316C112.76 31.4316 112.118 33.0164 112.118 34.7748Z" fill="#23294D"/>
<path d="M137.886 41.9901C136.956 40.3474 136.664 38.4129 136.664 37.1803C136.664 35.832 137.07 34.4232 138.293 32.8988C135.791 30.7883 134.571 28.0312 134.571 24.8037C134.571 18.4696 138.759 13.6598 146.203 13.6598C149.17 13.6598 151.497 14.422 153.997 15.6546C155.568 13.4837 157.487 12.4297 159.116 12.4297C161.094 12.4297 162.898 13.8963 162.898 15.8307C162.898 16.8269 162.374 17.5916 161.967 17.9413C159.932 19.76 159.35 20.2883 159.35 21.931V25.2163C159.35 31.2587 155.336 35.8923 146.844 35.8923C145.914 35.8923 144.692 35.8345 143.646 35.598C143.354 36.3602 143.297 36.5363 143.297 36.9464C143.297 38.589 144.228 38.823 144.926 38.823H147.368C154.93 38.823 160.747 41.6379 160.747 47.8564C160.747 54.0748 154.99 57.9438 147.079 57.9438C139.168 57.9438 134.167 54.3063 134.167 48.4425C134.167 46.1558 135.154 44.2188 137.889 41.9901H137.886ZM143.237 45.3911C142.539 46.2715 142.189 46.9155 142.189 47.8538C142.189 50.0248 143.818 51.3153 147.191 51.3153C150.564 51.3153 152.717 50.0826 152.717 48.0299C152.717 46.269 151.088 45.449 147.481 45.449L143.235 45.3911H143.237ZM147.194 20.1701C144.228 20.1701 142.599 21.8706 142.599 24.922C142.599 27.7369 143.936 29.5556 147.076 29.5556C149.985 29.5556 151.322 27.913 151.322 25.2741V21.1688C149.811 20.5248 148.531 20.1726 147.194 20.1726V20.1701Z" fill="#23294D"/>
<path d="M169.297 41.9901C168.366 40.3474 168.074 38.4129 168.074 37.1803C168.074 35.832 168.481 34.4232 169.703 32.8988C167.201 30.7883 165.981 28.0312 165.981 24.8037C165.981 18.4696 170.17 13.6598 177.614 13.6598C180.58 13.6598 182.908 14.422 185.407 15.6546C186.979 13.4837 188.897 12.4297 190.526 12.4297C192.505 12.4297 194.308 13.8963 194.308 15.8307C194.308 16.8269 193.785 17.5916 193.378 17.9413C191.342 19.76 190.761 20.2883 190.761 21.931V25.2163C190.761 31.2587 186.747 35.8923 178.255 35.8923C177.325 35.8923 176.102 35.8345 175.057 35.598C174.765 36.3602 174.708 36.5363 174.708 36.9464C174.708 38.589 175.638 38.823 176.337 38.823H178.779C186.34 38.823 192.158 41.6379 192.158 47.8564C192.158 54.0748 186.4 57.9438 178.49 57.9438C170.579 57.9438 165.577 54.3063 165.577 48.4425C165.577 46.1558 166.565 44.2188 169.299 41.9901H169.297ZM174.648 45.3911C173.949 46.2715 173.6 46.9155 173.6 47.8538C173.6 50.0248 175.229 51.3153 178.602 51.3153C181.975 51.3153 184.128 50.0826 184.128 48.0299C184.128 46.269 182.499 45.449 178.891 45.449L174.645 45.3911H174.648ZM178.602 20.1701C175.636 20.1701 174.007 21.8706 174.007 24.922C174.007 27.7369 175.344 29.5556 178.485 29.5556C181.393 29.5556 182.731 27.913 182.731 25.2741V21.1688C181.219 20.5248 179.939 20.1726 178.602 20.1726V20.1701Z" fill="#23294D"/>
<path d="M198.901 37.2377V5.03594C198.901 3.10147 200.647 1.39844 202.915 1.39844C205.182 1.39844 206.929 2.98324 206.929 5.03594V36.5333C206.929 37.7659 206.986 38.0577 207.802 38.9382C208.383 39.5822 208.85 39.8765 208.85 40.9909C208.85 43.1014 207.221 44.158 204.486 44.158C202.159 44.158 198.903 43.3958 198.903 37.2377H198.901Z" fill="#23294D"/>
<path d="M221.411 32.1938V34.1283C221.411 36.1232 222.922 37.4136 226.063 37.4136C227.924 37.4136 229.436 36.9432 231.3 36.1232C231.532 36.0049 232.056 35.771 233.043 35.771C235.835 35.771 236.651 37.6476 236.651 38.9959C236.651 43.1013 229.204 44.1579 225.482 44.1579C217.803 44.1579 213.383 39.7003 213.383 33.8944V24.0988C213.383 18.1746 217.686 13.6592 225.774 13.6592C233.395 13.6592 237.175 17.7067 237.175 23.6309C237.175 29.555 233.742 32.546 225.891 32.546C224.379 32.546 223.1 32.4278 221.413 32.1938H221.411ZM225.717 19.9355C222.925 19.9355 221.413 21.4021 221.413 23.7491V26.2722C223.274 26.4483 225.021 26.5062 225.602 26.5062C227.812 26.5062 229.209 25.7439 229.209 23.2208C229.209 20.8738 227.987 19.9355 225.719 19.9355H225.717Z" fill="#23294D"/>
<path d="M238.469 14.8874V11.7103H237.292V11.2852H240.123V11.7103H238.941V14.8874H238.469Z" fill="#23294D"/>
<path d="M240.592 14.8874V11.2852H241.303L242.149 13.8359C242.226 14.0724 242.284 14.251 242.319 14.3692C242.359 14.2384 242.423 14.0447 242.508 13.7932L243.364 11.2877H244V14.89H243.544V11.8763L242.506 14.89H242.079L241.046 11.8235V14.89H240.59L240.592 14.8874Z" fill="#23294D"/>
</g>
<defs>
<clipPath id="clip0_1775_6738">
<rect width="244" height="59" fill="white"/>
</clipPath>
</defs>
</svg>
