<svg width="28" height="28" viewBox="0 0 28 28" fill="none" xmlns="http://www.w3.org/2000/svg">
<path d="M21.5928 2.4872L21.8633 2.21666C22.552 1.52798 23.6726 1.52798 24.3613 2.21666L25.7833 3.63871C26.4721 4.3274 26.4721 5.448 25.7833 6.13669L25.51 6.41002C25.8315 6.90489 26.1193 7.41983 26.3718 7.95134L26.9849 7.33824C28.3383 5.98482 28.3383 3.79053 26.9849 2.43716L25.5628 1.01506C24.2094 -0.338354 22.0151 -0.338354 20.6617 1.01506L20.0537 1.62308C20.5841 1.87557 21.0979 2.16438 21.5928 2.4872Z" fill="#3E5959"/>
<path d="M7.0678 24.8519L6.79726 25.1224C6.10858 25.8111 4.98797 25.8111 4.29929 25.1224L2.87724 23.7003C2.18856 23.0116 2.18856 21.891 2.87724 21.2023L3.15057 20.929C2.82912 20.4341 2.5413 19.9192 2.28881 19.3877L1.6757 20.0008C0.322292 21.3542 0.322292 23.5485 1.6757 24.9019L3.0978 26.324C4.45121 27.6774 6.6455 27.6774 7.99885 26.324L8.60687 25.716C8.07651 25.4635 7.56272 25.1747 7.0678 24.8519Z" fill="#3E5959"/>
<path d="M23.7951 4.20529C19.0487 -0.54112 11.6247 -0.977256 6.38569 2.89612C5.59873 2.54421 4.64306 2.69066 3.9972 3.33652C3.35134 3.98239 3.20489 4.93806 3.5568 5.72502C-0.316616 10.964 0.119519 18.3881 4.86592 23.1345C9.61231 27.8809 17.0364 28.3171 22.2754 24.4437C23.0623 24.7956 24.018 24.6491 24.6638 24.0033C25.3097 23.3574 25.4562 22.4018 25.1042 21.6148C28.9777 16.3758 28.5415 8.95171 23.7951 4.20529Z" fill="#537983"/>
<path d="M14.3307 25.3553C20.7845 25.3553 26.0163 20.1234 26.0163 13.6696C26.0163 7.21575 20.7845 1.98389 14.3307 1.98389C7.87687 1.98389 2.64502 7.21575 2.64502 13.6696C2.64502 20.1234 7.87687 25.3553 14.3307 25.3553Z" fill="#3E5959"/>
<path d="M9.92426 21.9328C5.36801 17.3765 5.36801 9.96292 9.92426 5.40665C11.7112 3.61967 13.9377 2.5339 16.259 2.14862C12.6617 1.55154 8.83691 2.63737 6.06758 5.40665C1.51133 9.96292 1.51133 17.3765 6.06758 21.9328C8.83685 24.7021 12.6617 25.7879 16.259 25.1908C13.9377 24.8055 11.7112 23.7197 9.92426 21.9328Z" fill="#384949"/>
<path d="M14.3306 25.7599C11.0961 25.7599 8.05862 24.5037 5.77754 22.2226C3.49647 19.9415 2.24023 16.904 2.24023 13.6695C2.24023 10.435 3.49647 7.39751 5.77754 5.11642C8.05862 2.83534 11.0962 1.5791 14.3306 1.5791C17.565 1.5791 20.6026 2.83534 22.8836 5.11642C25.1647 7.39751 26.4209 10.435 26.4209 13.6695C26.4209 16.904 25.1647 19.9415 22.8836 22.2226C20.6026 24.5037 17.565 25.7599 14.3306 25.7599ZM14.3306 2.39942C11.3153 2.39942 8.48371 3.57034 6.35756 5.6965C4.23141 7.82265 3.06055 10.6542 3.06055 13.6695C3.06055 16.6848 4.23147 19.5164 6.35761 21.6425C8.48376 23.7687 11.3153 24.9396 14.3306 24.9396C17.346 24.9396 20.1775 23.7687 22.3037 21.6425C24.4298 19.5164 25.6007 16.6849 25.6007 13.6695C25.6007 10.6541 24.4298 7.8226 22.3037 5.69644C20.1775 3.57034 17.346 2.39942 14.3306 2.39942Z" fill="#678D98"/>
<path d="M22.4595 16.2103C22.1227 15.8734 21.7139 15.6522 21.2827 15.5464C21.2051 15.5767 21.1248 15.6024 21.0421 15.6228L20.9247 15.6517L21.0239 15.7208C21.2459 15.8753 21.3783 16.1283 21.3783 16.3977V17.2406C21.3783 18.0996 20.8004 18.859 19.9731 19.0875L19.8618 19.1183L19.956 19.1849C20.1748 19.3397 20.3055 19.5914 20.3055 19.8581V20.4751C21.0678 20.5898 21.8727 20.3539 22.4596 19.7669C23.4417 18.7848 23.4417 17.1924 22.4595 16.2103Z" fill="#FFE177"/>
<path d="M23.6607 12.4142C22.7998 11.5534 21.4703 11.4473 20.4937 12.0954H21.6733C22.128 12.0954 22.4981 12.4654 22.4981 12.9202V13.7631C22.4981 14.6472 21.8992 15.4122 21.0417 15.6237L20.9244 15.6526L21.0236 15.7217C21.2455 15.8762 21.378 16.1292 21.378 16.3985V16.6562C22.1774 16.8191 23.0406 16.591 23.6607 15.9709C24.6428 14.9887 24.6428 13.3963 23.6607 12.4142Z" fill="#FE7D43"/>
<path d="M22.2188 7.46413C22.0739 7.35284 21.8645 7.38899 21.7655 7.54255L20.7377 9.13703C20.6559 9.26402 20.6759 9.43251 20.7877 9.53418C21.3393 10.0359 21.4646 10.8793 21.0475 11.5263C20.8809 11.7848 20.6495 11.976 20.3887 12.0953H21.6737C22.1284 12.0953 22.4985 12.4653 22.4985 12.9201V13.6675C22.744 13.4402 22.9658 13.1794 23.1554 12.8852C24.3094 11.095 23.8785 8.73863 22.2188 7.46413Z" fill="#68CA44"/>
<path d="M18.5897 7.69542C19.2793 7.97886 19.6849 8.7288 19.5137 9.47934C19.3424 10.2299 18.6516 10.7296 17.9072 10.6858C17.8531 10.6826 17.8014 10.6943 17.7554 10.7169C17.689 10.8947 17.6099 11.0674 17.5183 11.2342L17.3218 12.0952H20.7779C21.3484 11.5606 21.7716 10.8568 21.9586 10.0373C22.4325 7.96082 21.2234 5.89291 19.2285 5.26126C19.0543 5.20614 18.8698 5.31152 18.8292 5.48964L18.4072 7.33913C18.3736 7.48645 18.4499 7.638 18.5897 7.69542Z" fill="#FFE177"/>
<path d="M17.2572 4.56011C17.33 4.56011 17.3973 4.58964 17.4467 4.64329C17.4962 4.69699 17.5202 4.76666 17.5142 4.8394C17.4515 5.59868 17.1739 6.32144 16.7113 6.92951L16.6445 7.01729H17.5876C17.6605 7.01729 17.7277 7.04687 17.7772 7.10047C17.8267 7.15417 17.8506 7.22384 17.8446 7.29652C17.7859 8.00889 17.5352 8.69473 17.1196 9.27989L17.0583 9.36624H17.7378C17.8107 9.36624 17.878 9.39583 17.9274 9.44942C17.9769 9.50312 18.0008 9.5728 17.9948 9.64548C17.9219 10.5291 17.5674 11.3445 16.9696 12.0035L16.8866 12.0949H17.2881C18.7186 11.731 19.8996 10.5986 20.2506 9.0607C20.7244 6.98425 19.5153 4.91634 17.5204 4.2847C17.3462 4.22957 17.1618 4.33496 17.1211 4.51307L17.1104 4.56H17.2572V4.56011Z" fill="#FE7D43"/>
<path d="M10.0058 9.64527C9.99986 9.57253 10.0238 9.50291 10.0732 9.44921C10.1226 9.39556 10.1899 9.36603 10.2627 9.36603H10.6418L10.5805 9.27968C10.165 8.69452 9.91427 8.00868 9.85553 7.29631C9.84957 7.22358 9.87347 7.15396 9.92296 7.10026C9.9724 7.04661 10.0397 7.01708 10.1125 7.01708H10.3948L10.328 6.9293C10.2012 6.76262 10.0889 6.58707 9.9905 6.40479C8.96697 5.72262 7.73781 5.32471 6.41552 5.32471C3.10675 5.32471 0.37942 7.81432 0.00464545 11.0225C-0.0424406 11.4257 0.274474 11.7795 0.680421 11.7795H10.8437C10.3637 11.1668 10.0703 10.4273 10.0058 9.64527Z" fill="#FFE177"/>
<path d="M2.08278 11.0225C2.41747 8.15732 4.62865 5.86552 7.45447 5.40816C7.11623 5.35342 6.76924 5.32471 6.41552 5.32471C3.10675 5.32471 0.37942 7.81432 0.00464545 11.0225C-0.0424406 11.4257 0.274474 11.7795 0.680421 11.7795H2.75855C2.35261 11.7795 2.03569 11.4257 2.08278 11.0225Z" fill="#FFD15B"/>
<path d="M4.8548 8.47266H4.31104C4.08452 8.47266 3.90088 8.28902 3.90088 8.0625C3.90088 7.83599 4.08452 7.65234 4.31104 7.65234H4.8548C5.08131 7.65234 5.26495 7.83599 5.26495 8.0625C5.26495 8.28902 5.08131 8.47266 4.8548 8.47266Z" fill="#FFF3BE"/>
<path d="M8.79718 8.12891H8.25342C8.0269 8.12891 7.84326 7.94527 7.84326 7.71875C7.84326 7.49224 8.0269 7.30859 8.25342 7.30859H8.79718C9.02369 7.30859 9.20734 7.49224 9.20734 7.71875C9.20734 7.94527 9.02375 8.12891 8.79718 8.12891Z" fill="#FFF3BE"/>
<path d="M3.01935 10.561H2.47559C2.24907 10.561 2.06543 10.3774 2.06543 10.1509C2.06543 9.92436 2.24907 9.74072 2.47559 9.74072H3.01935C3.24586 9.74072 3.4295 9.92436 3.4295 10.1509C3.4295 10.3774 3.24586 10.561 3.01935 10.561Z" fill="#FFF3BE"/>
<path d="M6.96173 10.1533H6.41797C6.19145 10.1533 6.00781 9.96968 6.00781 9.74317C6.00781 9.51665 6.19145 9.33301 6.41797 9.33301H6.96173C7.18825 9.33301 7.37189 9.51665 7.37189 9.74317C7.37189 9.96968 7.18825 10.1533 6.96173 10.1533Z" fill="#FFF3BE"/>
<path d="M8.81991 16.0003L8.83758 15.9801L8.83244 15.9538C8.79339 15.7549 8.77354 15.5523 8.77354 15.3515C8.77354 13.899 9.80276 12.6225 11.2208 12.3162L11.3221 12.2943L11.2468 12.223C10.9304 11.9237 10.668 11.5788 10.4663 11.2029C9.3587 10.3089 7.94972 9.77344 6.41552 9.77344C3.10675 9.77344 0.37942 12.263 0.00464545 15.4712C-0.0424406 15.8744 0.274474 16.2282 0.680421 16.2282H8.63901C8.69555 16.1498 8.75576 16.0736 8.81991 16.0003Z" fill="#FFE177"/>
<path d="M2.39898 15.4712C2.72743 12.6597 4.86271 10.4002 7.61268 9.8844C7.22473 9.81161 6.82458 9.77344 6.41552 9.77344C3.10675 9.77344 0.37942 12.263 0.00464545 15.4712C-0.0424406 15.8744 0.274474 16.2282 0.680421 16.2282H3.07481C2.66876 16.2282 2.35184 15.8744 2.39898 15.4712Z" fill="#FFD15B"/>
<path d="M4.8548 12.9219H4.31104C4.08452 12.9219 3.90088 12.7382 3.90088 12.5117C3.90088 12.2852 4.08452 12.1016 4.31104 12.1016H4.8548C5.08131 12.1016 5.26495 12.2852 5.26495 12.5117C5.26495 12.7382 5.08131 12.9219 4.8548 12.9219Z" fill="#FFF3BE"/>
<path d="M8.79718 12.5776H8.25342C8.0269 12.5776 7.84326 12.394 7.84326 12.1675C7.84326 11.941 8.0269 11.7573 8.25342 11.7573H8.79718C9.02369 11.7573 9.20734 11.941 9.20734 12.1675C9.20734 12.394 9.02375 12.5776 8.79718 12.5776Z" fill="#FFF3BE"/>
<path d="M3.01935 15.0098H2.47559C2.24907 15.0098 2.06543 14.8261 2.06543 14.5996C2.06543 14.3731 2.24907 14.1895 2.47559 14.1895H3.01935C3.24586 14.1895 3.4295 14.3731 3.4295 14.5996C3.4295 14.8261 3.24586 15.0098 3.01935 15.0098Z" fill="#FFF3BE"/>
<path d="M8.35944 19.4359L8.37087 19.4122L8.35944 19.3884C8.15579 18.966 8.05254 18.5134 8.05254 18.0431C8.05254 17.2919 8.32505 16.5665 8.81986 16.0005L8.83752 15.9802L8.83238 15.9539C8.79334 15.7551 8.77348 15.5525 8.77348 15.3517C8.77348 14.9978 8.83501 14.6545 8.94794 14.333C8.17033 14.001 7.31447 13.8169 6.41552 13.8169C3.10675 13.8169 0.37942 16.3065 0.00464545 19.5147C-0.0424406 19.9179 0.274474 20.2717 0.680421 20.2717H8.09465C8.14255 19.9823 8.23126 19.7018 8.35944 19.4359Z" fill="#FFD15B"/>
<path d="M2.39898 19.5147C2.72743 16.7032 4.86271 14.4436 7.61268 13.9279C7.22473 13.8551 6.82458 13.8169 6.41552 13.8169C3.10675 13.8169 0.37942 16.3065 0.00464545 19.5147C-0.0424406 19.9179 0.274474 20.2717 0.680421 20.2717H3.07481C2.66876 20.2717 2.35184 19.9179 2.39898 19.5147Z" fill="#FFC344"/>
<path d="M4.8548 16.9648H4.31104C4.08452 16.9648 3.90088 16.7812 3.90088 16.5547C3.90088 16.3282 4.08452 16.1445 4.31104 16.1445H4.8548C5.08131 16.1445 5.26495 16.3282 5.26495 16.5547C5.26495 16.7812 5.08131 16.9648 4.8548 16.9648Z" fill="#FFF3BE"/>
<path d="M3.01935 19.0527H2.47559C2.24907 19.0527 2.06543 18.8691 2.06543 18.6426C2.06543 18.4161 2.24907 18.2324 2.47559 18.2324H3.01935C3.24586 18.2324 3.4295 18.4161 3.4295 18.6426C3.4295 18.8691 3.24586 19.0527 3.01935 19.0527Z" fill="#FFF3BE"/>
<path d="M6.96173 18.6455H6.41797C6.19145 18.6455 6.00781 18.4619 6.00781 18.2354C6.00781 18.0088 6.19145 17.8252 6.41797 17.8252H6.96173C7.18825 17.8252 7.37189 18.0088 7.37189 18.2354C7.37189 18.4619 7.18825 18.6455 6.96173 18.6455Z" fill="#FFF3BE"/>
<path d="M11.462 18.3334V17.4904C11.462 16.6063 12.0609 15.8413 12.9183 15.6299L13.0357 15.601L12.9365 15.5319C12.7146 15.3774 12.5822 15.1243 12.5822 14.855V14.012C12.5822 13.725 12.6443 13.4487 12.7668 13.1908L12.7933 13.135L12.7346 13.1155C12.179 12.9307 11.6841 12.6322 11.2724 12.2505C9.81732 12.5336 8.71875 13.8143 8.71875 15.3522C8.71875 16.9617 9.9221 18.2892 11.478 18.4865C11.4683 18.4364 11.462 18.3853 11.462 18.3334Z" fill="#68CA44"/>
<path d="M12.9363 15.5316C12.8421 15.4661 12.7642 15.3825 12.7055 15.2877C12.248 15.0303 11.7205 14.8828 11.1582 14.8828C9.4126 14.8828 7.99756 16.2979 7.99756 18.0434C7.99756 18.5589 8.12121 19.0452 8.34018 19.475C8.8369 18.4053 9.9212 17.677 11.1582 17.677C11.1949 17.677 11.3234 17.6777 11.4617 17.679V17.4901C11.4617 16.606 12.0606 15.8409 12.9181 15.6296L13.0354 15.6006L12.9363 15.5316Z" fill="#FE7D43"/>
<path d="M11.7939 19.1038L11.9051 19.0731L11.811 19.0064C11.5922 18.8517 11.4616 18.6 11.4616 18.3332V17.6371C11.3617 17.6275 11.2604 17.6226 11.158 17.6226C9.54106 17.6226 8.20772 18.8368 8.02003 20.4032C7.9958 20.6053 8.1544 20.7831 8.35794 20.7831H10.3962C10.4657 19.9945 11.0208 19.3173 11.7939 19.1038Z" fill="#68CA44"/>
<path d="M15.3596 4.50537C15.2085 4.50537 15.0778 4.61349 15.0529 4.76251C14.93 5.49796 14.2891 6.06026 13.5192 6.06026C12.7494 6.06026 12.1085 5.49796 11.9856 4.76251C11.9607 4.61349 11.8299 4.50537 11.6788 4.50537H9.78181C9.5991 4.50537 9.45533 4.66178 9.47031 4.84383C9.6423 6.9293 11.3894 8.56819 13.5192 8.56819C15.6491 8.56819 17.3961 6.9293 17.5681 4.84383C17.5832 4.66178 17.4393 4.50537 17.2567 4.50537H15.3596Z" fill="#D7F8C4"/>
<path d="M15.6907 6.96289C15.5396 6.96289 15.4088 7.07101 15.3839 7.22003C15.2611 7.95548 14.6201 8.51778 13.8503 8.51778C13.0804 8.51778 12.4396 7.95548 12.3166 7.22003C12.2917 7.07101 12.161 6.96289 12.0099 6.96289H10.1129C9.93016 6.96289 9.78638 7.1193 9.80137 7.30135C9.97336 9.38682 11.7204 11.0257 13.8503 11.0257C15.9801 11.0257 17.7272 9.38682 17.8992 7.30135C17.9142 7.1193 17.7704 6.96289 17.5877 6.96289H15.6907Z" fill="#BBF49B"/>
<path d="M15.8406 9.31201C15.6895 9.31201 15.5587 9.42013 15.5338 9.56915C15.411 10.3046 14.77 10.8669 14.0002 10.8669C13.2303 10.8669 12.5895 10.3046 12.4665 9.56915C12.4416 9.42013 12.3109 9.31201 12.1598 9.31201H10.2628C10.0801 9.31201 9.93628 9.46842 9.95127 9.65047C10.1233 11.7359 11.8703 13.3748 14.0002 13.3748C16.13 13.3748 17.8771 11.7359 18.0491 9.65047C18.0641 9.46842 17.9203 9.31201 17.7376 9.31201H15.8406Z" fill="#D7F8C4"/>
<path d="M12.3056 18.979H19.4802C19.9659 18.979 20.3596 19.3727 20.3596 19.8584V20.7013C20.3596 21.79 19.4771 22.6725 18.3884 22.6725H11.2139C10.7282 22.6725 10.3345 22.2788 10.3345 21.7931V20.9502C10.3345 19.8615 11.217 18.979 12.3056 18.979Z" fill="#D6694B"/>
<path d="M19.2965 21.251H12.1218C11.6361 21.251 11.2425 20.8573 11.2425 20.3716V19.5287C11.2425 19.4448 11.2483 19.3624 11.2585 19.2812C10.7036 19.63 10.3345 20.2472 10.3345 20.951V21.7939C10.3345 22.2796 10.7282 22.6733 11.2139 22.6733H18.3885C19.3933 22.6733 20.2218 21.9214 20.3436 20.9496C20.0402 21.1403 19.6813 21.251 19.2965 21.251Z" fill="#C4573A"/>
<path d="M17.8802 20.587C17.6851 20.4721 17.4336 20.5372 17.3188 20.7325L16.2994 22.465C16.2609 22.5305 16.2431 22.6021 16.2432 22.673H17.1288L18.0258 21.1485C18.1406 20.9533 18.0755 20.7019 17.8802 20.587Z" fill="#A74B30"/>
<path d="M15.3403 20.5869C15.1451 20.4722 14.8936 20.5372 14.7787 20.7325L13.7594 22.4649C13.7209 22.5304 13.7031 22.6021 13.7031 22.6729H14.5888L15.4857 21.1485C15.6006 20.9532 15.5355 20.7018 15.3403 20.5869Z" fill="#A74B30"/>
<path d="M12.7988 20.587C12.6036 20.4721 12.3521 20.5372 12.2373 20.7325L11.2179 22.465C11.1799 22.5296 11.162 22.6004 11.1616 22.6703C11.179 22.6714 11.1961 22.673 11.2137 22.673H12.0473L12.9442 21.1485C13.0591 20.9533 12.994 20.7019 12.7988 20.587Z" fill="#A74B30"/>
<path d="M13.3783 15.519H20.553C21.0387 15.519 21.4324 15.9127 21.4324 16.3984V17.2414C21.4324 18.33 20.5499 19.2126 19.4612 19.2126H12.2866C11.8009 19.2126 11.4072 18.8189 11.4072 18.3332V17.4902C11.4072 16.4015 12.2897 15.519 13.3783 15.519Z" fill="#E49280"/>
<path d="M20.3668 17.7825H13.1922C12.7065 17.7825 12.3128 17.3888 12.3128 16.9031V16.0602C12.3128 15.9798 12.3182 15.9006 12.3275 15.8228C11.7747 16.1719 11.4072 16.7879 11.4072 17.4901V18.333C11.4072 18.8187 11.8009 19.2124 12.2866 19.2124H19.4612C20.4695 19.2124 21.3003 18.4553 21.4176 17.4786C21.1134 17.6709 20.7532 17.7825 20.3668 17.7825Z" fill="#DD7F66"/>
<path d="M18.953 17.1265C18.7579 17.0117 18.5065 17.0768 18.3915 17.272L17.3722 19.0045C17.3337 19.0699 17.3159 19.1416 17.3159 19.2125H18.2016L19.0985 17.688C19.2135 17.4928 19.1483 17.2414 18.953 17.1265Z" fill="#A74B30"/>
<path d="M16.4125 17.1265C16.2173 17.0116 15.9658 17.0768 15.851 17.2721L14.8317 19.0045C14.7932 19.07 14.7753 19.1417 14.7754 19.2125H15.6611L16.558 17.6881C16.6728 17.4928 16.6077 17.2414 16.4125 17.1265Z" fill="#A74B30"/>
<path d="M13.8715 17.1265C13.6763 17.0117 13.4249 17.0768 13.31 17.272L12.2906 19.0045C12.2526 19.0691 12.2348 19.1399 12.2344 19.2098C12.2517 19.2109 12.2689 19.2125 12.2865 19.2125H13.1201L14.017 17.688C14.1319 17.4928 14.0667 17.2414 13.8715 17.1265Z" fill="#A74B30"/>
<path d="M14.4989 12.0405H21.6736C22.1593 12.0405 22.553 12.4342 22.553 12.9199V13.7629C22.553 14.8515 21.6705 15.734 20.5818 15.734H13.4072C12.9215 15.734 12.5278 15.3403 12.5278 14.8547V14.0117C12.5278 12.923 13.4103 12.0405 14.4989 12.0405Z" fill="#D6694B"/>
<path d="M21.998 14.321H14.8233C14.3377 14.321 13.944 13.9273 13.944 13.4416V12.5987C13.944 12.4273 13.9659 12.2611 14.007 12.1025C13.1564 12.3211 12.5278 13.093 12.5278 14.0118V14.8548C12.5278 15.3404 12.9215 15.7341 13.4072 15.7341H20.5818C21.4991 15.7341 22.2699 15.1076 22.49 14.2591C22.3327 14.2995 22.1678 14.321 21.998 14.321Z" fill="#C4573A"/>
<path d="M20.0731 13.648C19.878 13.5331 19.6265 13.5983 19.5116 13.7936L18.4923 15.526C18.4538 15.5915 18.436 15.6632 18.436 15.734H19.3217L20.2186 14.2096C20.3335 14.0143 20.2684 13.7629 20.0731 13.648Z" fill="#A74B30"/>
<path d="M17.5326 13.648C17.3375 13.5332 17.0861 13.5983 16.9711 13.7935L15.9518 15.526C15.9133 15.5914 15.8955 15.6631 15.8955 15.7339H16.7812L17.6781 14.2095C17.793 14.0143 17.7279 13.7629 17.5326 13.648Z" fill="#A74B30"/>
<path d="M14.9921 13.648C14.797 13.5331 14.5455 13.5983 14.4306 13.7936L13.4113 15.526C13.3733 15.5907 13.3554 15.6614 13.355 15.7314C13.3723 15.7324 13.3895 15.734 13.4071 15.734H14.2406L15.1376 14.2096C15.2525 14.0143 15.1873 13.7629 14.9921 13.648Z" fill="#A74B30"/>
</svg>
