<svg width="28" height="28" viewBox="0 0 28 28" fill="none" xmlns="http://www.w3.org/2000/svg">
<path d="M4.99365 9.18164H6.08527V11.1348H4.99365V9.18164Z" fill="#D19A6E"/>
<path d="M19.8417 14.9463L15.7196 18.1871C15.383 18.4518 15.0959 18.7723 14.8713 19.134L11.3613 24.7881L13.0401 24.7739L16.8317 19.8008L21.7327 16.653L22.3888 14.1499L19.8417 14.9463Z" fill="#5D5360"/>
<path d="M11.5062 24.5747L11.376 25.8689H12.5771C12.8328 25.8689 13.0402 25.6651 13.0402 25.4138V24.7738L11.5062 24.5747Z" fill="#F4DBB3"/>
<path d="M23.3883 15.5852L23.2489 14.9458L21.3084 14.6807L18.4956 18.801C18.1861 19.2268 18.1515 19.789 18.4064 20.2484L20.7681 24.5034L21.7653 24.6285L22.6205 24.0483L20.305 19.4972L23.0122 16.8367C23.3454 16.5093 23.487 16.0381 23.3883 15.5852Z" fill="#6F6571"/>
<path d="M26.7647 4.39355L25.8749 4.3978L24.0096 6.75461L14.6341 10.7034C14.4036 10.8005 14.1553 10.8506 13.9044 10.8506H11.043V12.2159H14.2217C14.5701 12.2159 14.9163 12.1607 15.2468 12.0524L17.5263 11.3057L21.6554 14.9466H23.2488L22.1572 9.94037L24.8735 8.41494C25.2179 8.22151 25.506 7.9443 25.7102 7.60995L27.089 5.3515L26.7647 4.39355Z" fill="#FF9A9F"/>
<path d="M17.5609 11.2975L17.5264 11.3054L19.8418 14.9462H21.6555L18.9432 11.7523C18.6069 11.3562 18.0721 11.1803 17.5609 11.2975Z" fill="#FF8086"/>
<path d="M8.26465 21.7725L6.87537 20.8623L4.722 23.8251C4.6223 23.9623 4.60792 24.1424 4.68464 24.2932L5.23015 25.3654C5.38705 25.6738 5.70774 25.8686 6.05856 25.8686H6.56163C6.70895 25.8686 6.80734 25.7193 6.74707 25.5871L6.12292 24.2188L8.26465 21.7725Z" fill="#D19A6E"/>
<path d="M4.94135 11.7603L4.55127 15.2284L5.94908 15.4011L6.87527 14.946L8.26454 11.7603H4.94135Z" fill="#FFD064"/>
<path d="M6.29637 11.9028L4.51991 12.0349L4.09668 14.9464L4.90835 15.1458C5.3266 14.1552 6.25158 11.9688 6.29637 11.9028Z" fill="#FFC250"/>
<path d="M11.5059 24.5034L6.87495 18.1319L3.6333 17.2217L10.5043 25.5325C10.6802 25.7452 10.9442 25.8687 11.2231 25.8687H12.5503C12.8091 25.8687 12.919 25.5449 12.7119 25.3924L11.5059 24.5034Z" fill="#E2A975"/>
<path d="M6.87547 14.9458H4.09691L0.443247 16.0876C0.443247 16.0876 0.129724 16.5122 0.31588 16.6659C0.727512 17.0057 0.733309 17.3445 1.20138 17.6107C1.66513 17.8743 2.34949 17.702 2.85956 17.8845C3.36071 18.0638 3.76288 18.6398 4.30024 18.7323C4.82283 18.8223 5.4005 18.4459 5.94934 18.4459C6.49807 18.4459 7.07557 18.8782 7.59806 18.7882C8.13536 18.6957 8.53753 18.1198 9.03874 17.9405C9.54876 17.758 9.99615 18.0516 10.4598 17.7879C10.6787 17.6635 10.8343 17.4499 10.98 17.2228L10.9857 16.7793L6.87547 14.9458Z" fill="#FFE07D"/>
<path d="M5.94885 9.82636C6.71613 9.82636 7.33813 9.21508 7.33813 8.46103C7.33813 7.70698 6.71613 7.0957 5.94885 7.0957C5.18157 7.0957 4.55957 7.70698 4.55957 8.46103C4.55957 9.21508 5.18157 9.82636 5.94885 9.82636Z" fill="#E2A975"/>
<path d="M4.12785 8.02942C4.63936 8.02942 5.05403 7.6219 5.05403 7.1192C5.05403 6.6165 4.63936 6.20898 4.12785 6.20898C3.61633 6.20898 3.20166 6.6165 3.20166 7.1192C3.20166 7.6219 3.61633 8.02942 4.12785 8.02942Z" fill="#966A5B"/>
<path d="M5.56032 6.96156C5.89966 6.8681 6.20126 6.86718 6.48077 6.95769C6.63909 7.00907 6.75929 7.14445 6.78718 7.31101C6.81627 7.48444 6.74644 7.65696 6.60447 7.76187L6.03774 8.17909C5.78952 8.3622 5.57235 8.58067 5.3926 8.8287L5.00136 9.36802C4.95761 9.42838 4.88668 9.4639 4.81099 9.46337C4.7772 9.46299 4.74422 9.45568 4.71436 9.44187C4.67794 9.42505 4.64589 9.39903 4.62238 9.36561C4.32072 8.93742 4.24771 8.39428 4.4278 7.91225C4.59629 7.45977 5.00946 7.11317 5.56032 6.96156Z" fill="#785353"/>
<path d="M4.79132 12.2154H11.0431V10.8501H4.79132C4.40769 10.8501 4.09668 11.1557 4.09668 11.5328C4.09668 11.9098 4.40769 12.2154 4.79132 12.2154Z" fill="#E2A975"/>
<path d="M17.25 7.4203L18.0442 9.26057C18.194 9.60765 18.6018 9.76969 18.9549 9.62248C19.3081 9.47528 19.473 9.07456 19.3232 8.72747L18.529 6.88721L17.25 7.4203Z" fill="#9F6E50"/>
<path d="M27.0891 5.35119L27.9026 4.01881C28.0641 3.75412 28.0218 3.41531 27.7997 3.19706C27.5085 2.91092 27.0281 2.94032 26.7754 3.25972L25.875 4.39744L27.0891 5.35119Z" fill="#B57F5F"/>
<path d="M17.6739 8.46893C18.4412 8.46893 19.0632 7.85766 19.0632 7.10361C19.0632 6.34956 18.4412 5.73828 17.6739 5.73828C16.9067 5.73828 16.2847 6.34956 16.2847 7.10361C16.2847 7.85766 16.9067 8.46893 17.6739 8.46893Z" fill="#B57F5F"/>
<path d="M16.1686 6.53032C16.4215 5.88893 17.057 5.47999 17.7509 5.51255C18.2485 5.53642 18.712 5.82062 19.0209 6.29266C19.23 6.61195 19.3176 6.9234 19.2882 7.24479C19.2751 7.38641 19.2026 7.51782 19.0894 7.60478C18.9869 7.68281 18.8621 7.71931 18.735 7.70877C18.722 7.7077 18.7094 7.70619 18.6969 7.70426L18.4326 7.66363C18.1894 7.6252 17.9688 7.51502 17.7951 7.34449L17.4205 6.97666C17.2668 6.82564 17.055 6.75593 16.8385 6.78302L16.4144 6.83795C16.334 6.84913 16.2525 6.81602 16.2021 6.75298C16.1517 6.68994 16.139 6.60502 16.1686 6.53032Z" fill="#643C3E"/>
<path d="M11.0433 12.2154C11.4269 12.2154 11.7379 11.9098 11.7379 11.5328C11.7379 11.1557 11.4269 10.8501 11.0433 10.8501C10.6596 10.8501 10.3486 11.1557 10.3486 11.5328C10.3486 11.9098 10.6596 12.2154 11.0433 12.2154Z" fill="#B57F5F"/>
<path d="M20.3624 25.6771L22.6206 25.1292V24.0483L20.7682 24.5034L20.1315 25.1292C19.9257 25.3314 20.0714 25.6771 20.3624 25.6771Z" fill="#F5EBCD"/>
<path d="M20.1312 25.1294L19.9361 25.3212C19.7304 25.5233 19.8762 25.869 20.1671 25.869H22.1573C22.413 25.869 22.6204 25.6652 22.6204 25.4139V25.1294L20.1312 25.1294Z" fill="#F4DBB3"/>
<path d="M11.0185 16.7945L10.9852 16.7796C10.9003 16.8776 10.8063 16.9629 10.6963 17.0255C10.2326 17.2891 9.54832 17.1036 9.0383 17.2861C8.53715 17.4654 8.13492 18.0413 7.59762 18.1338C7.07513 18.2238 6.49763 17.8189 5.9489 17.8189C5.40006 17.8189 4.82245 18.2237 4.2998 18.1337C3.7625 18.0412 3.36032 17.4653 2.85911 17.2859C2.34905 17.1034 1.66469 17.2888 1.20094 17.0251C0.862641 16.8327 0.67561 16.4269 0.442861 16.0879L0.232533 16.1536C-0.022584 16.2333 -0.0823026 16.5591 0.126275 16.724C0.132236 16.7287 0.138142 16.7335 0.144049 16.7383C0.555681 17.0781 0.732923 17.7546 1.20099 18.0208C1.66474 18.2844 2.3491 18.099 2.85917 18.2815C3.36032 18.4609 3.7625 19.0369 4.29985 19.1293C4.82245 19.2193 5.40011 18.8146 5.94895 18.8146C6.49769 18.8146 7.07519 19.2194 7.59767 19.1294C8.13497 19.0369 8.53715 18.461 9.03836 18.2817C9.54837 18.0992 10.2326 18.2848 10.6963 18.0211C10.9164 17.8959 11.0726 17.6805 11.219 17.452C11.3686 17.2184 11.2742 16.9086 11.0185 16.7945Z" fill="#FFF0AF"/>
</svg>
