<svg width="28" height="28" viewBox="0 0 28 28" fill="none" xmlns="http://www.w3.org/2000/svg">
<path fill-rule="evenodd" clip-rule="evenodd" d="M18.9439 5.47975C19.8187 6.19591 19.9494 7.48513 19.2351 8.36183C18.5189 9.23666 17.2278 9.36732 16.353 8.65116C15.4763 7.93686 15.3456 6.64577 16.0618 5.77094C16.7779 4.89425 18.0672 4.76358 18.9439 5.47975Z" fill="#EAA377"/>
<path fill-rule="evenodd" clip-rule="evenodd" d="M18.9439 5.47939C18.5786 5.18135 18.1394 5.02953 17.702 5.01709C17.6155 5.09487 17.5327 5.17762 17.4568 5.27095C16.7406 6.14765 16.8713 7.43687 17.748 8.15303C18.1132 8.45107 18.5506 8.60289 18.9881 8.61347C19.0764 8.53756 19.1592 8.45294 19.2351 8.36147C19.9494 7.48478 19.8187 6.19556 18.9439 5.47939Z" fill="#F0BC9C"/>
<path d="M17.36 6.28497C17.4465 6.17732 17.6033 6.16177 17.7091 6.24763C17.8149 6.33412 17.831 6.49092 17.7445 6.59669L16.2892 8.37808C16.2027 8.48573 16.0459 8.50128 15.9401 8.41542C15.8344 8.32893 15.8169 8.17213 15.9028 8.06636L17.36 6.28497Z" fill="black"/>
<path fill-rule="evenodd" clip-rule="evenodd" d="M9.2167 18.0037C7.69104 19.0017 5.42993 18.0249 5.41375 17.9788C3.8072 19.1921 4.26577 20.0072 3.59503 20.5629C3.1825 20.9032 1.99906 21.6474 0.991699 20.515L2.15399 19.1853L2.89815 19.7795L4.67954 16.6224C4.95643 16.7531 7.22439 16.7867 7.39238 15.9448L9.2167 18.0037Z" fill="#C78445"/>
<path fill-rule="evenodd" clip-rule="evenodd" d="M7.32093 18.4444C7.14796 18.4357 6.97871 18.4177 6.81818 18.3934C6.82192 18.3791 6.35588 16.6966 6.30859 16.612C6.48343 16.5803 6.65268 16.5361 6.80263 16.4795C7.07454 16.9872 7.24564 17.4197 7.31595 17.7812C7.36511 18.0338 7.36697 18.254 7.32093 18.4444Z" fill="#B66032"/>
<path fill-rule="evenodd" clip-rule="evenodd" d="M21.801 15.4673L24.2351 16.6439C24.9121 17.3601 24.1766 18.5118 24.9407 20.351C25.1945 20.9614 24.736 21.4374 23.5121 21.8306L23.3111 20.626L24.0323 20.2608L23.5948 17.7545C22.2123 17.0769 21.6106 17.1093 19.6245 16.9114L21.801 15.4673Z" fill="#C78445"/>
<path fill-rule="evenodd" clip-rule="evenodd" d="M23.7217 16.397L24.235 16.644C24.3072 16.7218 24.3638 16.8027 24.408 16.8891C24.3003 16.8823 22.3478 17.2102 22.2651 17.2457C22.0056 17.1803 21.7449 17.1343 21.4556 17.0957C21.9284 16.8238 22.4206 16.6284 22.9321 16.5121C23.1909 16.4536 23.4535 16.415 23.7217 16.397Z" fill="#B66032"/>
<path fill-rule="evenodd" clip-rule="evenodd" d="M17.4131 14.3227C16.5133 13.6613 16.0759 12.4498 17.2507 12.2644C19.205 11.9577 20.33 8.74956 21.99 9.01898C21.9477 11.0119 20.4221 12.7809 17.4131 14.3227Z" fill="#E2BB92"/>
<path fill-rule="evenodd" clip-rule="evenodd" d="M21.9902 9.01899L22.5477 7.57981C22.7399 7.08267 23.4524 8.57286 23.6975 8.65188C24.6837 8.97294 26.5672 10.0332 27.4246 10.2889C28.58 10.633 27.7985 12.3011 26.8055 11.9347C25.0067 11.2695 24.9749 13.1673 23.6714 11.6261C22.7474 12.8257 23.2993 13.8834 22.2658 14.864L25.6382 15.1727C26.5236 15.6032 26.2399 16.9397 27.6031 18.3951C28.0549 18.8767 27.7935 19.4833 26.7868 20.2823L26.1745 19.2257L26.7196 18.6297L25.4304 16.4376C23.8624 16.2858 22.6964 16.9404 20.6891 17.4587C19.2674 21.508 10.9988 18.0815 10.7219 18.9209C9.84711 21.5752 6.27748 20.6724 6.24886 20.6195C4.852 22.0711 5.43252 22.8028 4.85698 23.4574C4.50418 23.8575 3.4514 24.7783 2.27854 23.8189L3.2187 22.3231L4.04562 22.7922L5.30995 19.395C5.6503 19.4939 7.69986 19.1392 7.10751 17.9259C6.50459 16.6933 6.37206 15.5429 6.78148 14.6046C6.41313 14.421 6.00185 14.3296 5.58061 14.347C3.67913 14.4279 2.78688 17.2571 0 15.8832C3.31078 14.9729 3.44269 11.2764 7.08511 14.0738C8.03025 12.7865 10.2702 13.4479 14.0116 13.3191C17.4132 13.2027 17.3951 14.8833 21.9902 9.01899Z" fill="#C78445"/>
<path fill-rule="evenodd" clip-rule="evenodd" d="M8.55371 13.3223C9.77449 13.1512 11.5733 13.4031 14.0105 13.3185C15.3227 13.2744 16.1254 13.4946 16.882 13.4492V13.6309C16.882 13.7877 16.8235 13.9308 16.7271 14.0471C16.7289 14.0664 16.7289 14.0876 16.7289 14.1069C16.7289 15.6661 14.9706 16.9286 12.8009 16.9286C12.7393 16.9286 12.679 16.9267 12.6192 16.9249C13.1375 17.8793 13.346 17.2372 13.7672 17.4401C14.4143 18.336 14.7708 18.98 14.8256 19.3397C14.3036 19.2706 13.794 19.186 13.323 19.1051C13.1556 18.9993 12.9758 18.8811 12.7798 18.7455C12.0443 18.239 11.508 17.8955 11.8097 17.3977C11.8962 17.2565 12.0375 17.0487 12.1731 16.8913C10.3407 16.6797 8.93326 15.5597 8.87477 14.1946C8.68064 14.0695 8.55371 13.863 8.55371 13.6303V13.3223Z" fill="#B66032"/>
<path fill-rule="evenodd" clip-rule="evenodd" d="M23.6704 11.6256C23.1253 12.3331 23.0936 12.9907 22.9474 13.6117C22.3899 12.488 22.5753 11.3226 23.5068 10.1143C23.3618 10.6556 23.4165 11.1583 23.6704 11.6256Z" fill="#B66032"/>
<path fill-rule="evenodd" clip-rule="evenodd" d="M11.7234 18.8348C11.1522 18.7396 10.7764 18.754 10.7217 18.9213C10.8785 18.2108 10.8399 17.764 10.1978 16.9775C11.1224 17.27 12.9703 19.0427 11.7234 18.8348Z" fill="#B66032"/>
<path fill-rule="evenodd" clip-rule="evenodd" d="M20.6884 17.4591C20.5335 17.9015 20.2952 18.2543 19.9971 18.5349H19.9953C19.2511 19.2281 18.1236 19.4645 16.9072 19.4801C18.0732 19.0955 18.5561 18.4802 18.3626 17.6352C18.2549 17.2787 18.3221 16.8189 18.5636 16.2539C18.8454 17.3882 19.5522 17.7908 20.6884 17.4591Z" fill="#B66032"/>
<path fill-rule="evenodd" clip-rule="evenodd" d="M16.0086 11.9062C16.1181 11.8496 16.245 11.8179 16.3807 11.8179C16.7988 11.8179 17.1429 12.1302 17.1429 12.511V13.2956C17.1429 13.4506 17.0844 13.5955 16.9892 13.7119V13.7716C16.9892 15.329 15.2308 16.5921 13.0612 16.5921C10.9326 16.5921 9.20036 15.3769 9.13503 13.8581C8.9409 13.733 8.81396 13.5265 8.81396 13.2956V12.511C8.81396 12.1302 9.15805 11.8179 9.57617 11.8179C9.75226 11.8179 9.91466 11.8726 10.0453 11.9641C11.9928 13.6067 16.2208 12.8675 16.0086 11.9062Z" fill="#A74227"/>
<path fill-rule="evenodd" clip-rule="evenodd" d="M10.0913 12.0034C10.5076 12.3388 11.019 12.5715 11.5678 12.7196C11.6898 12.7992 11.8167 12.8745 11.9486 12.9473C12.7195 13.3636 13.6896 13.6548 14.8624 13.8184C14.9981 13.8377 15.092 13.9628 15.074 14.099C15.0547 14.2347 14.9296 14.3286 14.7934 14.3106C14.6241 14.2857 14.458 14.2596 14.2962 14.2309C13.8974 14.5252 13.6186 14.8818 13.4618 15.2999C13.3224 15.6738 13.2764 16.1044 13.3243 16.5872C13.2378 16.591 13.1495 16.5922 13.0617 16.5922C12.9821 16.5922 12.9049 16.5904 12.8272 16.5872C12.6492 14.6242 13.529 14.3753 11.7122 13.3841C11.0333 13.0158 10.4933 12.5553 10.0913 12.0034Z" fill="#79301C"/>
<path fill-rule="evenodd" clip-rule="evenodd" d="M10.4745 10.1271C10.9561 8.1254 14.7149 5.23772 16.3339 7.65252C16.9549 9.5204 19.7218 10.5806 21.38 11.5805C22.4309 12.4062 21.8579 13.0763 20.9482 12.8965C20.751 12.8579 20.6782 12.283 20.4455 12.2177C20.0995 12.1188 19.7274 11.9937 19.3591 11.8543C16.4384 10.7468 17.6324 11.8543 15.3552 9.37293C14.3689 9.42084 13.1507 9.94412 13.0356 10.9129L15.759 13.1865C16.0639 13.4403 15.8386 14.1391 15.4329 14.9486L14.0485 14.289C14.2955 14.0563 14.4399 13.9219 14.2918 13.8497C13.6515 13.543 12.6622 13.4173 11.9442 13.072C10.4235 12.3371 10.0265 11.9881 10.4745 10.1271Z" fill="#4D4D4E"/>
<path fill-rule="evenodd" clip-rule="evenodd" d="M13.2881 10.2959C13.1544 10.4757 13.0642 10.6805 13.0362 10.9113L13.0747 10.943L11.9336 10.1279L13.2881 10.2959Z" fill="#383838"/>
<path fill-rule="evenodd" clip-rule="evenodd" d="M15.3548 9.37222C15.0213 9.38964 14.6598 9.46058 14.325 9.58378L14.2578 8.16016L15.3548 9.37222Z" fill="#3E3E3E"/>
<path fill-rule="evenodd" clip-rule="evenodd" d="M15.4322 14.9467C14.8168 16.1724 13.7846 17.6508 13.545 18.2201L12.8799 17.6029C13.4106 16.7704 12.7953 15.6877 13.5749 14.7737C13.7423 14.5764 13.9103 14.4159 14.0478 14.2871L15.4322 14.9467Z" fill="#D0D0CF"/>
<path fill-rule="evenodd" clip-rule="evenodd" d="M15.4321 14.947C14.9313 15.9451 14.1516 17.1129 13.7516 17.8204L13.4585 17.5472C13.9892 16.7147 13.3739 15.6321 14.1535 14.7181C14.2344 14.621 14.3178 14.5326 14.3968 14.4536L15.4321 14.947Z" fill="#E6E6E6"/>
<path fill-rule="evenodd" clip-rule="evenodd" d="M14.2332 17.4408C13.7852 17.2256 13.5774 17.9647 12.9826 16.7284C12.8787 16.5113 12.4549 17.1042 12.2751 17.4004C11.9733 17.8975 12.5097 18.2398 13.2451 18.7481C15.6351 20.397 15.9051 19.7548 14.2332 17.4408Z" fill="#191919"/>
<path fill-rule="evenodd" clip-rule="evenodd" d="M16.6844 4.23259C17.487 3.86548 18.4502 3.9277 19.2156 4.45658C20.2739 5.19204 21.1718 7.15884 20.0624 8.05669C19.5298 8.30185 19.498 6.68472 17.362 6.66481C17.0832 6.40908 16.7889 6.11789 16.4766 5.79371C16.2949 5.60705 16.2227 5.36501 16.2719 5.10928C16.3192 4.85293 16.448 4.34147 16.6844 4.23259Z" fill="#191919"/>
<path fill-rule="evenodd" clip-rule="evenodd" d="M19.1102 10.3276C19.9054 10.7843 20.7292 11.1863 21.38 11.5801C22.4309 12.4058 21.8579 13.0759 20.9482 12.8961C20.7509 12.8575 20.6781 12.2826 20.4454 12.2173C20.0995 12.1184 19.7274 11.9933 19.3591 11.8539C18.8302 11.6529 18.4363 11.526 18.1333 11.4358L19.1102 10.3276Z" fill="#B45A35"/>
</svg>
