<svg width="28" height="28" viewBox="0 0 28 28" fill="none" xmlns="http://www.w3.org/2000/svg">
<path d="M17.5899 22.309C17.5899 22.309 18.4759 24.252 21.6801 24.6372C21.6801 24.6372 19.9695 24.902 19.635 25.0945C19.4221 25.2171 18.8292 24.9106 18.4264 24.6715C17.8856 24.3506 17.1889 24.6082 16.9781 25.2097C16.9747 25.2193 16.9714 25.2291 16.9681 25.239C16.6382 26.2259 14.5179 25.6241 14.5179 25.6241C14.5179 25.6241 13.9053 25.7204 14.5179 26.3703C15.1304 27.0203 16.6147 26.9721 16.6147 26.9721C16.6147 26.9721 18.3346 26.4185 19.9131 26.7555C21.4916 27.0925 23.5911 26.6795 24.8135 26.587C25.7816 26.5137 28.5595 26.2741 27.8999 24.1798C27.8999 24.1798 27.4051 22.8559 24.6957 22.1096C21.9863 21.3634 21.3502 21.0986 21.3502 21.0986L17.5899 22.309Z" fill="#FBC9B2"/>
<path d="M17.335 17.5812H18.1509L19.2639 18.2968L20.0801 19.4339L18.8929 21.0983L17.5945 21.7461L17.0017 21.4874L13.3653 19.396C13.3653 19.396 10.8426 17.6524 10.5458 17.3492C10.249 17.046 9.09896 16.0226 9.09896 16.0226C9.09896 16.0226 5.53753 12.2321 3.9794 11.3982C2.42128 10.5643 0.121183 8.25217 0.121183 8.25217C0.121183 8.25217 -0.323996 7.49408 0.492166 7.38037C0.492166 7.38037 1.19703 7.56989 1.41962 7.94893C1.64221 8.32798 3.75681 8.82073 3.75681 8.82073C3.75681 8.82073 4.57298 8.74493 4.72137 9.76834C4.72137 9.76834 5.09235 10.4885 6.83597 11.0571C8.57959 11.6257 10.8055 14.8096 10.8055 14.8096L13.8846 16.7427C13.8846 16.7427 15.7456 17.0839 17.335 17.5812Z" fill="#FBC9B2"/>
<path d="M17.049 11.0058C17.153 11.0135 16.2715 10.6712 15.5634 10.4999C15.3539 10.4492 14.939 11.2478 14.939 11.2478C14.939 11.2478 14.6806 11.4678 14.4869 11.7098C14.4869 11.7098 14.0778 11.7318 14.0778 12.1058C14.0778 12.4797 14.2382 12.727 13.7763 13.4737C13.1452 14.494 14.2895 15.6485 14.2895 15.6485L16.2524 15.0316L18.5912 14.4596L18.6853 12.4357L17.049 11.0058Z" fill="#FBC9B2"/>
<path d="M13.646 14.5634C13.646 14.5634 14.3879 13.7218 15.049 13.507C15.2099 13.4548 15.3584 13.3649 15.4659 13.2319C15.534 13.1477 15.5913 13.0429 15.6064 12.9197L15.7355 12.8097C15.7355 12.8097 15.7345 13.8216 16.1656 13.8216C16.5968 13.8216 16.7259 13.4737 16.7259 13.4737C16.7259 13.4737 16.8551 12.8757 16.7259 12.3697C16.5968 11.8638 17.0489 11.8638 17.0489 11.8638L18.9867 13.0559L18.5911 14.8776C18.5911 14.8776 18.0513 16.5254 16.8211 16.6625C15.7689 16.7797 14.8528 16.1975 14.8528 16.1975C14.8528 16.1975 13.9604 15.8239 13.646 14.5634Z" fill="#293B44"/>
<path d="M12.6885 5.34167L12.1445 4.15519C12.1445 4.15519 11.4017 4.15519 11.2886 3.87471C11.2886 3.87471 10.9929 3.79222 11.9885 3.80872C11.9885 3.80872 12.2252 3.33025 11.8054 2.75278C11.3855 2.17532 11.7246 2.25781 11.7246 2.25781C11.7246 2.25781 12.0637 2.3568 11.8215 1.94433C11.5793 1.53185 11.0948 1.21837 11.3694 1.02039C11.3694 1.02039 11.5308 1.00389 11.6116 1.20187C11.6116 1.20187 11.6116 0.838897 11.8861 1.08638C12.1606 1.33387 12.6885 2.04332 12.6885 2.04332C12.6885 2.04332 13.0488 2.53829 13.0326 2.29081C13.0165 2.04332 13.0811 1.59785 13.3394 1.72984C13.5978 1.86183 13.6463 2.76928 13.6463 2.76928C13.6463 2.76928 13.84 3.64373 13.6463 3.97371C13.4525 4.30369 13.8252 4.61042 13.8252 4.61042V5.6401H13.4202H13.0165L12.6885 5.34167Z" fill="#FBC9B2"/>
<path d="M17.0018 21.4875C17.0018 21.4875 18.5506 21.6678 18.8643 19.3041C18.8643 19.3041 19.08 17.6615 17.3351 17.5813C17.3351 17.5813 18.0997 17.2408 19.2172 17.5813C19.2172 17.5813 20.4328 17.7416 20.1191 16.5397C19.8054 15.3378 18.5863 15.1174 18.5863 15.1174C18.5863 15.1174 17.1782 14.6567 17.4135 12.7937C17.4135 12.7937 16.7861 12.0125 16.2371 10.5501C15.6882 9.08781 14.6687 8.18638 14.6687 8.18638L12.6885 5.34185C12.6885 5.34185 13.61 5.84265 13.7276 4.46045C13.7276 4.46045 14.6491 5.92278 15.2765 6.30338C15.9038 6.68399 17.7468 9.42835 17.7468 9.42835C17.7468 9.42835 18.5114 11.0109 19.6682 11.1912C20.8249 11.3714 21.4915 11.6719 21.4915 11.6719C21.4915 11.6719 23.1776 12.2328 24.0011 14.3362C24.0011 14.3362 25.9813 17.7015 22.0013 21.0468C22.0013 21.0468 19.08 23.0901 17.5899 22.3088C17.5899 22.3088 17.139 22.1085 17.0018 21.4875Z" fill="#DD584D"/>
</svg>
