<svg width="34" height="35" viewBox="0 0 34 35" fill="none" xmlns="http://www.w3.org/2000/svg">
<g clip-path="url(#clip0_162_2080)">
<path d="M31.0347 12.5586H29.653L28.5695 14.0216V28.0654H5.42279C5.34277 28.2923 5.29834 28.4176 5.29834 28.4176V31.974L5.73164 32.7016L6.3117 32.9344H13.4608C13.962 32.9344 14.4186 33.2123 14.6785 33.6534C15.1542 34.4607 16.0156 35.0002 16.9998 35.0002C17.9839 35.0002 18.8454 34.4607 19.321 33.6534C19.5809 33.2123 20.0375 32.9344 20.5387 32.9344H31.0347C31.6484 32.9344 32.1458 32.4223 32.1458 31.7907V13.7024C32.1459 13.0707 31.6484 12.5586 31.0347 12.5586Z" fill="#CE7BBC"/>
<path d="M5.55801 31.7906V28.0654H4.97922V13.3518L4.34676 12.5586H2.96505C2.35139 12.5586 1.854 13.0707 1.854 13.7023V31.7906C1.854 32.4223 2.35145 32.9343 2.96505 32.9343H6.66912C6.05546 32.9343 5.55801 32.4223 5.55801 31.7906Z" fill="#C464B0"/>
<path d="M29.0515 10.3737C27.2901 9.76453 25.4982 9.48309 23.7364 9.5051L22.4128 10.405L18.7427 15.8855L16.2559 21.4847V29.4271L17 30.8806C20.6257 29.0551 24.8234 28.6907 28.8602 30.031C29.2517 30.161 29.6533 29.8648 29.6533 29.4414V11.2319C29.6533 10.8423 29.4102 10.4977 29.0515 10.3737Z" fill="#C9F0FE"/>
<path d="M15.2572 19.7742V16.934L14.1719 15.3858V12.8327L11.4824 10.0372L10.2635 9.5051C9.38908 9.49416 8.50734 9.55822 7.62559 9.69972L6.66895 10.3541V29.1483L7.45938 29.4493C10.7552 28.8829 14.0649 29.4029 16.9999 30.8806V21.791L15.2572 19.7742Z" fill="#9BE8FD"/>
<path d="M7.3323 29.0637V10.3825C7.3323 10.1164 7.44327 9.87128 7.62569 9.69922C6.73073 9.84284 5.83577 10.0663 4.94852 10.3732C4.58979 10.4972 4.34668 10.8418 4.34668 11.2314V29.4409C4.34668 29.8643 4.7483 30.1604 5.13984 30.0305C5.90889 29.7751 6.68378 29.582 7.45947 29.4488C7.38078 29.3434 7.3323 29.2114 7.3323 29.0637Z" fill="#62DDFC"/>
<path d="M14.7445 27.1383C14.694 27.1383 14.6426 27.1305 14.5918 27.1143C12.2257 26.3557 9.67974 26.2055 7.22908 26.6801C6.95051 26.7336 6.68236 26.5453 6.63003 26.2586C6.57764 25.9719 6.76092 25.6958 7.03943 25.6419C9.65424 25.1355 12.3713 25.296 14.8969 26.1057C15.1675 26.1925 15.3186 26.4886 15.2343 26.7671C15.1658 26.9933 14.9632 27.1383 14.7445 27.1383Z" fill="#62DDFC"/>
<path d="M14.7445 24.605C14.694 24.605 14.6426 24.5972 14.5918 24.581C12.2257 23.8224 9.67974 23.6722 7.22908 24.1468C6.95051 24.2009 6.68236 24.012 6.63003 23.7254C6.57764 23.4387 6.76092 23.1626 7.03943 23.1086C9.65424 22.6024 12.3713 22.7628 14.8969 23.5724C15.1675 23.6593 15.3186 23.9553 15.2343 24.2338C15.1658 24.46 14.9632 24.605 14.7445 24.605Z" fill="#62DDFC"/>
<path d="M7.13372 21.6218C6.89181 21.6218 6.67645 21.4449 6.63003 21.1912C6.57764 20.9045 6.76092 20.6285 7.03943 20.5745C8.75576 20.2422 10.4965 20.1929 12.2135 20.4284C12.4944 20.4669 12.6917 20.7326 12.6543 21.0217C12.6169 21.3108 12.359 21.5136 12.078 21.4755C10.4694 21.2549 8.83797 21.3011 7.22915 21.6126C7.19708 21.6189 7.16513 21.6218 7.13372 21.6218Z" fill="#62DDFC"/>
<path d="M7.13372 19.0884C6.89181 19.0884 6.67645 18.9115 6.63003 18.6578C6.57764 18.3711 6.76092 18.0951 7.03943 18.0411C8.06109 17.8433 9.10181 17.7475 10.1339 17.749C10.4172 17.7501 10.6461 17.9875 10.645 18.2792C10.6439 18.5703 10.4145 18.8054 10.132 18.8054C10.1116 18.8051 10.0922 18.8053 10.0723 18.8053C9.12432 18.8053 8.16813 18.8974 7.22915 19.0792C7.19708 19.0854 7.16513 19.0884 7.13372 19.0884Z" fill="#62DDFC"/>
<path d="M7.13372 16.5554C6.89181 16.5554 6.67645 16.3785 6.63003 16.1248C6.57764 15.8381 6.76092 15.5621 7.03943 15.5081C8.06069 15.3103 9.10074 15.2108 10.1339 15.216C10.4172 15.2171 10.6461 15.4545 10.645 15.7462C10.644 16.0372 10.4145 16.2724 10.132 16.2724C10.1123 16.2733 10.0929 16.2723 10.0733 16.2722C9.12465 16.2722 8.16813 16.3644 7.22922 16.5462C7.19708 16.5524 7.16513 16.5554 7.13372 16.5554Z" fill="#62DDFC"/>
<path d="M7.13372 14.0211C6.89181 14.0211 6.67645 13.8442 6.63003 13.5905C6.57764 13.3038 6.76092 13.0278 7.03943 12.9738C8.06069 12.776 9.1032 12.6775 10.1338 12.6818C10.4172 12.6829 10.646 12.9202 10.645 13.212C10.6439 13.5037 10.4158 13.7406 10.1299 13.7381C9.1619 13.7344 8.18673 13.8265 7.22915 14.012C7.19708 14.0182 7.16513 14.0211 7.13372 14.0211Z" fill="#62DDFC"/>
<path d="M19.2557 27.1382C19.037 27.1382 18.8344 26.9932 18.766 26.767C18.6818 26.4885 18.8328 26.1924 19.1034 26.1056C21.6289 25.2959 24.346 25.1357 26.9609 25.6418C27.2394 25.6957 27.4227 25.9718 27.3703 26.2585C27.318 26.5452 27.0495 26.7341 26.7712 26.68C24.3205 26.2052 21.7746 26.3555 19.4085 27.1142C19.3576 27.1305 19.3062 27.1382 19.2557 27.1382Z" fill="#62DDFC"/>
<path d="M19.2557 24.605C19.037 24.605 18.8344 24.46 18.766 24.2338C18.6818 23.9553 18.8328 23.6592 19.1034 23.5724C21.6289 22.7627 24.346 22.6025 26.9609 23.1086C27.2394 23.1625 27.4227 23.4386 27.3703 23.7253C27.318 24.012 27.0495 24.2008 26.7712 24.1468C24.3205 23.6721 21.7746 23.8223 19.4085 24.581C19.3576 24.5973 19.3062 24.605 19.2557 24.605Z" fill="#62DDFC"/>
<path d="M26.8665 21.6218C26.835 21.6218 26.8031 21.6189 26.771 21.6127C25.1622 21.3011 23.5308 21.2549 21.9222 21.4755C21.6412 21.5144 21.3833 21.3109 21.3459 21.0217C21.3085 20.7326 21.5058 20.4669 21.7867 20.4284C23.5037 20.193 25.2445 20.2421 26.9608 20.5745C27.2393 20.6285 27.4226 20.9045 27.3702 21.1912C27.3238 21.445 27.1085 21.6218 26.8665 21.6218Z" fill="#62DDFC"/>
<path d="M26.8667 19.0885C26.8352 19.0885 26.8034 19.0856 26.7713 19.0794C25.8134 18.8939 24.8377 18.8014 23.8705 18.8055C23.8699 18.8055 23.8691 18.8055 23.8685 18.8055C23.586 18.8055 23.3565 18.5704 23.3555 18.2794C23.3544 17.9877 23.5832 17.7503 23.8666 17.7492C24.8997 17.7447 25.9395 17.8434 26.9611 18.0412C27.2396 18.0952 27.4229 18.3712 27.3705 18.6579C27.324 18.9116 27.1087 19.0885 26.8667 19.0885Z" fill="#62DDFC"/>
<path d="M26.8667 16.5553C26.8352 16.5553 26.8034 16.5523 26.7713 16.5461C25.8137 16.3606 24.8357 16.2697 23.8705 16.2723C23.8699 16.2723 23.8692 16.2723 23.8685 16.2723C23.586 16.2723 23.3565 16.0371 23.3555 15.7461C23.3544 15.4543 23.5832 15.217 23.8666 15.2159C24.8979 15.2127 25.9397 15.3102 26.961 15.5079C27.2395 15.5619 27.4228 15.838 27.3704 16.1247C27.324 16.3783 27.1087 16.5553 26.8667 16.5553Z" fill="#62DDFC"/>
<path d="M26.8667 14.0211C26.8352 14.0211 26.8034 14.0182 26.7713 14.0119C25.8137 13.8265 24.8379 13.7339 23.8705 13.7381C23.8699 13.7381 23.8692 13.7381 23.8685 13.7381C23.586 13.7381 23.3565 13.5029 23.3555 13.2119C23.3544 12.9202 23.5832 12.6828 23.8666 12.6817C24.8982 12.6783 25.9397 12.776 26.961 12.9738C27.2395 13.0278 27.4228 13.3038 27.3704 13.5905C27.324 13.8442 27.1087 14.0211 26.8667 14.0211Z" fill="#62DDFC"/>
<path d="M19.4827 16.6689H16.6807V19.2717L16.8812 19.592L16.7576 19.791V19.9553H19.0306L19.6056 19.592V16.9342L19.4827 16.6689Z" fill="#00C2FB"/>
<path d="M16.8808 16.9342L17.0708 16.6689H14.5567L14.3667 16.9342V19.592L14.7163 19.9553H17.2304L16.8808 19.592V16.9342Z" fill="#00ABF2"/>
<path d="M16.8809 19.5918L16.7573 19.7908V20.6914L17.6296 21.7076H18.2431C19.0311 21.4637 19.6053 20.7115 19.6053 19.8209V19.5919L16.8809 19.5918Z" fill="#00ABF2"/>
<path d="M16.8808 19.8208V19.5918H14.3667V19.8208C14.3667 20.9089 15.2236 21.7911 16.2807 21.7911H17.6913C17.8831 21.7911 18.0683 21.7617 18.243 21.7076C17.4551 21.4637 16.8808 20.7114 16.8808 19.8208Z" fill="#0092D1"/>
<path d="M18.7073 0.213867H16.9999L14.9418 1.96141C14.9418 1.96141 12.8356 4.33231 12.9722 4.40272C13.1088 4.47313 12.6982 6.96142 12.6982 6.96142L13.002 9.13552L14.6137 11.7737L15.6171 13.2056V16.7495L15.744 16.6916L16.2246 16.9404H17.7473L18.2167 16.6916L18.7735 16.9404H19.4967C20.263 16.9404 20.8843 16.3009 20.8843 15.5121V14.4332C20.8843 13.8052 21.1425 13.2021 21.6059 12.7935C23.1128 11.4648 24.0698 9.4942 24.0764 7.29316C24.0866 3.95183 21.8454 1.01367 18.7073 0.213867Z" fill="#FFE02F"/>
<path d="M15.7826 12.765C14.2942 11.4367 13.3505 9.4789 13.344 7.29352C13.3337 3.8949 15.6267 1.00521 18.7075 0.214227C18.1279 0.066502 17.5178 -0.00835151 16.8856 0.000740292C13.0342 0.0559063 9.91149 3.32854 9.92337 7.29352C9.93001 9.49456 10.887 11.4652 12.3939 12.7939C12.8572 13.2024 13.1155 13.8055 13.1155 14.4336V15.5124C13.1155 16.3013 13.7368 16.9408 14.5031 16.9408H15.1986L15.7441 16.6919L15.7825 16.7119V12.765H15.7826Z" fill="#FBC700"/>
<path d="M19.8002 7.34863C19.5169 7.34863 19.2872 7.58509 19.2872 7.87678V10.3394C19.2872 10.4958 19.2353 10.6494 19.1412 10.7721L18.1893 12.0122C17.9044 12.3834 17.7476 12.8483 17.7476 13.3213V16.9405H18.7737V13.3213C18.7737 13.0849 18.8522 12.8526 18.9945 12.6671L19.9464 11.4269C20.183 11.1186 20.3134 10.7324 20.3134 10.3394V7.87671C20.3134 7.58502 20.0836 7.34863 19.8002 7.34863Z" fill="#FFF1AF"/>
<path d="M16.2249 16.9405V13.3213C16.2249 12.8483 16.068 12.3834 15.7832 12.0122L14.8313 10.7721C14.7371 10.6494 14.6853 10.4958 14.6853 10.3394V7.87678C14.6853 7.58502 14.4556 7.34863 14.1722 7.34863C13.8889 7.34863 13.6592 7.58509 13.6592 7.87678V10.3394C13.6592 10.7324 13.7895 11.1186 14.0261 11.427L14.9781 12.6671C15.1204 12.8526 15.1988 13.085 15.1988 13.3214V16.9406C15.494 16.9405 15.8476 16.9405 16.2249 16.9405Z" fill="#FFF1AF"/>
<path d="M20.5145 9.48793H13.4852C13.2019 9.48793 12.9722 9.25147 12.9722 8.95979C12.9722 8.66803 13.2019 8.43164 13.4852 8.43164H20.5145C20.7978 8.43164 21.0275 8.6681 21.0275 8.95979C21.0275 9.25147 20.7978 9.48793 20.5145 9.48793Z" fill="#FFF1AF"/>
</g>
<defs>
<clipPath id="clip0_162_2080">
<rect width="34" height="35" fill="white"/>
</clipPath>
</defs>
</svg>
