<svg width="35" height="35" viewBox="0 0 35 35" fill="none" xmlns="http://www.w3.org/2000/svg">
<path fill-rule="evenodd" clip-rule="evenodd" d="M19.8844 22.8374C18.3407 22.8374 17.0903 24.0879 17.0903 25.6318C17.0903 27.1741 18.3407 28.4263 19.8844 28.4263C21.4282 28.4263 22.6785 27.1741 22.6785 25.6318C22.6785 24.0879 21.4282 22.8374 19.8844 22.8374Z" fill="#BBEC6A"/>
<path fill-rule="evenodd" clip-rule="evenodd" d="M19.6577 22.8456C20.7547 23.2238 21.5421 24.2639 21.5421 25.49C21.5421 26.9557 20.4125 28.1588 18.9746 28.2746C19.2599 28.3725 19.5664 28.4263 19.8842 28.4263C21.428 28.4263 22.6783 27.1741 22.6783 25.6318C22.6783 24.0879 21.428 22.8374 19.8842 22.8374C19.8076 22.8374 19.7326 22.8406 19.6577 22.8456Z" fill="#97DA7B"/>
<path fill-rule="evenodd" clip-rule="evenodd" d="M14.8767 17.7314L7.58499 25.0224L7.479 26.3739L8.97712 26.4147L16.2672 19.1237L16.4058 17.7314H14.8767Z" fill="#7CA2B1"/>
<path fill-rule="evenodd" clip-rule="evenodd" d="M14.8763 16.7469C14.6057 17.0176 14.6057 17.461 14.8763 17.7316L16.2668 19.1239C16.5374 19.3946 16.9808 19.3946 17.2514 19.1239L18.7495 17.6257C18.7821 16.0377 17.8986 15.1834 16.3744 15.247L14.8763 16.7469Z" fill="#F8F2F0"/>
<path fill-rule="evenodd" clip-rule="evenodd" d="M16.3743 15.2466C16.5977 15.7536 16.9188 16.2297 17.3443 16.6568C17.7697 17.0824 18.2457 17.4019 18.7495 17.6252C20.4236 18.3638 22.4141 18.023 23.9481 16.8622C24.4502 16.4824 25.0957 16.0601 25.7347 15.9704C26.3738 15.8792 26.9541 15.9835 27.6437 15.8433C28.4424 15.6786 29.119 15.2938 29.6944 14.7184C29.8786 14.5341 30.0465 14.332 30.1949 14.1152C32.0565 11.3941 30.3775 7.75842 28.3104 5.68953C26.2417 3.62222 22.6064 1.94298 19.8857 3.80483C19.6688 3.95319 19.4667 4.12114 19.2825 4.30533C18.7071 4.88086 18.3207 5.55746 18.1577 6.35628C18.0159 7.04431 18.1218 7.6263 18.0305 8.26379C17.9409 8.90451 17.5187 9.55015 17.1389 10.0523C15.9798 11.5848 15.6375 13.5739 16.3743 15.2466ZM22.533 15.0803C21.4147 15.902 19.9362 16.0324 18.9516 15.0477C17.9686 14.0646 18.099 12.5859 18.9206 11.4658C18.9321 11.4528 18.9419 11.4381 18.9516 11.4251C21.3512 8.25406 19.5808 7.22204 20.8898 5.91451C20.9828 5.81996 21.0855 5.73678 21.1947 5.66508C22.0358 5.1059 23.309 5.18088 24.5969 5.79065C25.3174 6.13141 26.0428 6.64006 26.7014 7.29872C27.36 7.95573 27.8686 8.68286 28.2093 9.40348C28.819 10.6914 28.8924 11.9631 28.3348 12.806C28.2631 12.9152 28.1799 13.0163 28.0854 13.1109C26.778 14.4184 25.7461 12.6495 22.5754 15.0477C22.5624 15.0591 22.5478 15.0689 22.533 15.0803Z" fill="#00C0FA"/>
<path fill-rule="evenodd" clip-rule="evenodd" d="M5.0542 27.5483L7.58071 25.0218L8.97274 26.4139L6.44623 28.9404L5.0542 27.5483Z" fill="#F8F2F0"/>
<path fill-rule="evenodd" clip-rule="evenodd" d="M4.69617 27.1353L3.13937 28.6922C2.95354 28.8781 2.95354 29.1797 3.13937 29.3655L4.63585 30.8606C4.82004 31.0465 5.12328 31.0465 5.30747 30.8606L6.86426 29.3036C7.05009 29.1194 7.05009 28.8161 6.86426 28.6319L6.81209 28.5797L5.4199 27.1874L5.36773 27.1353C5.1836 26.951 4.88036 26.951 4.69617 27.1353Z" fill="#7CA2B1"/>
<path fill-rule="evenodd" clip-rule="evenodd" d="M23.3111 15.8498C21.3289 17.3497 18.375 17.2959 16.5949 15.5156C16.5297 15.4504 16.4661 15.3835 16.4058 15.3151C16.6258 15.796 16.9372 16.2492 17.3448 16.6568C17.7702 17.0824 18.2462 17.4019 18.75 17.6252C20.4241 18.3638 22.4146 18.023 23.9486 16.8622C24.4507 16.4824 25.0962 16.0601 25.7352 15.9704C26.3742 15.8792 26.9546 15.9835 27.6441 15.8433C28.4429 15.6786 29.1195 15.2938 29.6949 14.7184C29.8791 14.5341 30.047 14.332 30.1953 14.1152C31.7782 11.8017 30.8018 8.82959 29.2042 6.71826C30.3094 8.67794 30.7593 11.0534 29.4455 12.9739C29.2971 13.1907 29.1292 13.3929 28.945 13.5787C28.3696 14.1526 27.693 14.539 26.8943 14.702C26.2047 14.8439 25.6244 14.7395 24.9853 14.8292C24.3463 14.9205 23.8116 15.4699 23.3111 15.8498Z" fill="#08A9F1"/>
<path fill-rule="evenodd" clip-rule="evenodd" d="M6.20251 28.6934L4.6718 30.2243C4.48597 30.4102 4.18436 30.4102 3.99854 30.2243L4.63592 30.8601C4.82011 31.046 5.12335 31.046 5.30754 30.8601L6.86434 29.3032C7.05017 29.1189 7.05017 28.8157 6.86434 28.6315L6.81216 28.5793L6.22859 27.9956C6.41278 28.1798 6.41278 28.4831 6.22859 28.6673L6.20251 28.6934Z" fill="#668D97"/>
<path fill-rule="evenodd" clip-rule="evenodd" d="M7.73799 26.3804L6.17627 27.9439L6.22844 27.9961L6.81201 28.5797L8.97688 26.4146L8.34114 25.7788L7.73799 26.3804Z" fill="#EEE1DC"/>
<path fill-rule="evenodd" clip-rule="evenodd" d="M15.6309 18.4858L8.34082 25.7784L8.97657 26.4142L16.2667 19.1233L15.6325 18.4891C15.6326 18.4875 15.6326 18.4875 15.6309 18.4858Z" fill="#668D97"/>
<path fill-rule="evenodd" clip-rule="evenodd" d="M16.3126 18.6637C16.0794 18.7289 15.817 18.6702 15.6328 18.4892L16.267 19.1234C16.5376 19.3941 16.981 19.3941 17.2516 19.1234L18.7497 17.6252C18.4693 17.5012 18.1987 17.348 17.9395 17.1621L16.6158 18.4859C16.5294 18.574 16.4234 18.6327 16.3126 18.6637Z" fill="#EEE1DC"/>
<path d="M29.0087 10.3935C28.9178 10.0119 28.7803 9.62686 28.6021 9.24601C28.5957 9.22999 28.5879 9.2144 28.5795 9.19909C28.2105 8.42597 27.6723 7.67139 27.0008 6.99977C26.3282 6.32716 25.5727 5.78827 24.7987 5.41902C24.7871 5.41278 24.7754 5.40715 24.7634 5.40207C24.3798 5.22176 23.9919 5.08258 23.6074 4.99092C22.5718 4.74406 21.6577 4.85694 20.9773 5.30335C20.9647 5.31096 20.9524 5.31927 20.9405 5.32829C20.8163 5.41306 20.6991 5.50783 20.5918 5.61535C19.9118 6.29457 19.9114 6.93671 19.911 7.61654C19.9105 8.43745 19.9098 9.45913 18.6151 11.1701C18.6089 11.1783 18.6031 11.1868 18.5969 11.1951C18.5848 11.2096 18.5739 11.2248 18.564 11.2404C17.5678 12.6151 17.5999 14.2928 18.6534 15.3463C19.1967 15.8897 19.9053 16.1619 20.6526 16.1619C21.355 16.1619 22.0913 15.9207 22.7566 15.4386C22.7739 15.4279 22.7905 15.4158 22.8065 15.4023C22.8146 15.3962 22.8229 15.3906 22.8309 15.3845C24.5418 14.0905 25.5634 14.0898 26.3842 14.0893C27.0638 14.0889 27.7057 14.0885 28.3847 13.4094C28.4903 13.3038 28.5837 13.1887 28.6673 13.0668C28.6794 13.0515 28.69 13.0355 28.6997 13.0191C29.1432 12.3389 29.2547 11.4267 29.0087 10.3935ZM27.6906 9.32515L26.5716 10.4443L25.3627 9.23529L26.6933 7.9048C27.0997 8.35838 27.4342 8.84143 27.6906 9.32515ZM21.4874 13.1102L22.827 11.7707L24.0358 12.9803L22.6966 14.3196L21.4874 13.1102ZM21.6186 9.36627L22.9588 8.02631L24.1676 9.23518L22.8272 10.5755L21.6186 9.36627ZM24.6334 12.3827L23.4246 11.1732L24.7652 9.83281L25.9741 11.0418L24.6334 12.3827ZM26.0962 7.30684L24.7652 8.63767L23.5565 7.42879L24.6804 6.30496C25.1688 6.56527 25.6477 6.90319 26.0962 7.30684ZM22.5775 5.70799C22.8371 5.70799 23.1167 5.74277 23.4115 5.8131C23.5568 5.84772 23.7028 5.89108 23.8492 5.94112L22.9589 6.83122L21.9219 5.79412C22.122 5.73725 22.3413 5.70799 22.5775 5.70799ZM20.7561 7.61714C20.7565 7.02159 20.7578 6.65791 21.1681 6.2354L22.3613 7.42868L20.7288 9.06084C20.7266 9.06292 20.7243 9.06472 20.7221 9.06691C20.72 9.06904 20.7182 9.07139 20.716 9.07364L20.5866 9.20303C20.755 8.5675 20.7558 8.053 20.7561 7.61714ZM21.0211 9.96373L22.2296 11.173L20.8899 12.5126L19.681 11.3036L21.0211 9.96373ZM19.1157 11.9334L20.2922 13.1101L18.9833 14.4189C18.481 13.6449 18.6521 12.6842 19.1157 11.9334ZM19.5808 15.0166L20.8898 13.7077L22.0669 14.8849C21.3163 15.3492 20.3555 15.5201 19.5808 15.0166ZM26.3838 13.2443C25.9477 13.2446 25.4331 13.2453 24.7971 13.414L26.5716 11.6394L27.765 12.8329C27.3429 13.2427 26.9793 13.2439 26.3838 13.2443ZM28.2037 12.0765L27.1691 11.0418L28.0538 10.157C28.296 10.8634 28.3548 11.5348 28.2037 12.0765Z" fill="#7CA2B1"/>
</svg>
