<svg width="28" height="28" viewBox="0 0 28 28" fill="none" xmlns="http://www.w3.org/2000/svg">
<path d="M12.7231 1.01498L13.425 1.71685C13.6188 1.91065 13.6188 2.22493 13.425 2.41873L12.0213 3.82242C11.8275 4.01622 11.5132 4.01622 11.3194 3.82242L10.6175 3.12054C10.4237 2.92674 10.4237 2.61247 10.6175 2.41867L12.0212 1.01498C12.2151 0.821179 12.5293 0.821179 12.7231 1.01498Z" fill="#FAB991"/>
<path d="M13.4249 3.12048C13.8125 2.73288 13.8125 2.1044 13.4249 1.7168L11.3193 3.82236L12.397 4.90011L13.8007 3.49642L13.4249 3.12048Z" fill="#F0915A"/>
<path d="M15.104 28.0002H11.1337C10.5855 28.0002 10.1411 27.5558 10.1411 27.0076V25.0225H14.1114C15.2078 25.0225 16.0966 25.9112 16.0966 27.0076C16.0966 27.5558 15.6521 28.0002 15.104 28.0002Z" fill="#FAB991"/>
<path d="M19.656 13.5229L12.0662 5.93325C11.8724 5.73945 11.8724 5.42524 12.0662 5.23138L14.1718 3.12582C14.3656 2.93202 14.6799 2.93202 14.8737 3.12582L22.4633 10.7155L19.656 13.5229Z" fill="#AAC3D7"/>
<path d="M14.1115 10.1342H13.9411L5.67209 1.86514C4.89682 1.08988 3.63991 1.08988 2.86465 1.86514C2.08939 2.6404 2.08939 3.89731 2.86465 4.67257L10.1411 11.949V25.0228H14.1114V10.1342H14.1115Z" fill="#D7E6F0"/>
<path d="M17.0889 20.0594V18.0742H23.0443C23.0443 19.1706 22.1555 20.0594 21.0592 20.0594H17.0889Z" fill="#8CAAC8"/>
<path d="M15.104 20.0594V18.0742H17.0892V20.5557H15.6003C15.3262 20.5557 15.104 20.3335 15.104 20.0594Z" fill="#F0915A"/>
<path d="M18.0814 19.5632V20.0595C18.0814 20.3335 17.8592 20.5558 17.5852 20.5558H17.0889V19.5632C17.0889 19.2891 17.3111 19.0669 17.5852 19.0669C17.8592 19.0669 18.0814 19.2891 18.0814 19.5632Z" fill="#FAB991"/>
<path d="M14.1113 18.0744V10.1338H21.0594C22.1557 10.1338 23.0445 11.0226 23.0445 12.1189V18.0744H14.1113Z" fill="#AAC3D7"/>
<path d="M19.5703 15.0967H23.0443V12.1189C23.0443 11.0226 22.1555 10.1338 21.0592 10.1338H14.6074C14.6074 12.8704 16.8337 15.0967 19.5703 15.0967Z" fill="#323232"/>
<path d="M23.0444 14.1041V12.1189C23.0444 11.0226 22.1556 10.1338 21.0593 10.1338H15.6001C15.6001 12.3265 17.3777 14.1041 19.5704 14.1041H23.0444Z" fill="#D7E6F0"/>
<path d="M19.5703 14.104H23.0443V12.1188C23.0443 11.9475 23.0226 11.7812 22.9818 11.6226H22.0517C20.6835 11.6226 19.5703 12.7357 19.5703 14.104Z" fill="#323232"/>
<path d="M20.563 14.1041H23.0444V12.6152H22.0519C21.2296 12.6152 20.563 13.2819 20.563 14.1041Z" fill="#F0915A"/>
<path d="M15.6001 10.1338V18.0744H14.1112V10.1338H15.6001Z" fill="#323232"/>
<path d="M4.18573 3.18573C3.40916 3.9623 2.15002 3.9623 1.37346 3.18573L1.14535 2.95769C0.95155 2.76389 0.95155 2.44961 1.14535 2.25581L3.25581 0.14535C3.44961 -0.0484501 3.76389 -0.0484501 3.95769 0.14535L4.18573 0.373456C4.9623 1.15008 4.9623 2.40917 4.18573 3.18573Z" fill="#FAB991"/>
<path d="M19.8864 11.357L22.3429 13.8135C22.7305 14.2011 23.359 14.2011 23.7466 13.8135L26.905 10.6552C27.4865 10.0737 27.4865 9.13101 26.905 8.54961L25.1504 6.79498C24.5689 6.21352 23.6262 6.21352 23.0448 6.79498L19.8864 9.95336C19.4988 10.341 19.4988 10.9694 19.8864 11.357Z" fill="#F0915A"/>
<path d="M21.2901 12.7607L19.8864 11.357C19.4988 10.9694 19.4988 10.341 19.8864 9.95336L23.0448 6.79498C23.6262 6.21352 24.5689 6.21352 25.1503 6.79498L25.8522 7.49686C26.4337 8.07832 26.4337 9.02102 25.8522 9.60242L22.6938 12.7608C22.3062 13.1483 21.6778 13.1483 21.2901 12.7607Z" fill="#FAB991"/>
<path d="M23.3955 11.3569C23.2017 11.1631 23.2017 10.8488 23.3955 10.655L24.0974 9.95314C23.7098 9.56554 23.7098 8.93705 24.0974 8.54945L22.3428 6.79483C23.118 6.01956 24.3749 6.01956 25.1502 6.79483L26.9048 8.54945C27.6801 9.32471 27.6801 10.5816 26.9048 11.3569L24.7993 13.4624C24.4117 13.85 23.7832 13.85 23.3956 13.4624C23.008 13.0748 23.008 12.4464 23.3956 12.0588L23.7465 11.7078L23.3955 11.3569Z" fill="#323232"/>
<path d="M23.3958 12.0589C23.202 11.8651 23.202 11.5508 23.3958 11.357L24.0977 10.6551C24.2915 10.4613 24.6058 10.4613 24.7996 10.6551C25.1872 11.0427 25.1872 11.6712 24.7996 12.0588C24.4119 12.4465 23.7835 12.4465 23.3958 12.0589Z" fill="#F0915A"/>
</svg>
