<svg width="28" height="28" viewBox="0 0 28 28" fill="none" xmlns="http://www.w3.org/2000/svg">
<path d="M26.8366 14.4782V17.2123C26.8505 17.7298 26.3142 18.1469 25.8173 18.0079L22.2947 17.127V24.9922H20.6543V13.3425C20.6543 13.0899 20.7708 12.8515 20.9698 12.6962C21.1688 12.5409 21.4286 12.4857 21.6736 12.5469L26.2154 13.6826C26.5806 13.774 26.8366 14.102 26.8366 14.4782Z" fill="#8066FF"/>
<path d="M19.2873 28.0002C20.9482 28.0002 22.2947 26.6537 22.2947 24.9928C22.2947 23.3318 20.9482 21.9854 19.2873 21.9854C17.6263 21.9854 16.2798 23.3318 16.2798 24.9928C16.2798 26.6537 17.6263 28.0002 19.2873 28.0002Z" fill="#9999FF"/>
<path d="M11.6511 18.6463L9.12541 18.0148C8.62661 17.8775 8.09413 18.2932 8.10616 18.8104V23.8992L9.73823 25.439C9.73823 24.0471 9.74659 19.8608 9.74659 19.8608L11.2531 20.2375C11.3198 20.2545 11.3865 20.2622 11.4526 20.2622C11.8201 20.2622 12.1548 20.0134 12.2477 19.641C12.3576 19.2014 12.0902 18.7563 11.6511 18.6463Z" fill="#FFBB33"/>
<path d="M13.2716 1.07164L9.09563 0.0277937C8.59694 -0.110548 8.06325 0.306117 8.07692 0.823395V10.5173L9.74404 12.4597L9.71735 4.60783L13.2716 5.49639L15.0098 3.587L13.2716 1.07164Z" fill="#FF8066"/>
<path d="M6.72345 15.48C8.39179 15.48 9.74426 14.1276 9.74426 12.4592C9.74426 10.7909 8.39179 9.43848 6.72345 9.43848C5.0551 9.43848 3.70264 10.7909 3.70264 12.4592C3.70264 14.1276 5.0551 15.48 6.72345 15.48Z" fill="#FF4D4D"/>
<path d="M16.8263 12.9509L18.48 14.6476L18.4667 3.01124C18.4667 2.63503 18.2102 2.30695 17.845 2.21564L13.272 1.07227V5.49701L16.8263 6.38557V12.9509Z" fill="#FF4D4D"/>
<path d="M15.4588 17.6675C17.1271 17.6675 18.4796 16.3151 18.4796 14.6467C18.4796 12.9784 17.1271 11.626 15.4588 11.626C13.7905 11.626 12.438 12.9784 12.438 14.6467C12.438 16.3151 13.7905 17.6675 15.4588 17.6675Z" fill="#CC295F"/>
<path d="M7.17764 27.9992C8.59173 27.9992 9.73808 26.8529 9.73808 25.4388C9.73808 24.0248 8.59173 22.8784 7.17764 22.8784C5.76354 22.8784 4.61719 24.0248 4.61719 25.4388C4.61719 26.8529 5.76354 27.9992 7.17764 27.9992Z" fill="#FF9933"/>
<path d="M3.88504 20.2157C3.89718 20.2115 3.90937 20.207 3.9214 20.2022C4.34207 20.0341 4.54679 19.5568 4.3787 19.1362C4.35043 19.0654 3.66681 17.3973 2.01861 16.9869C1.57908 16.8774 1.13398 17.1451 1.0245 17.5846C0.915032 18.0242 1.18264 18.4692 1.62222 18.5787C2.43752 18.7817 2.85157 19.7353 2.85534 19.7449C3.01867 20.1534 3.47362 20.3583 3.88504 20.2157Z" fill="#FFBB33"/>
<path d="M3.88499 3.25333C3.89713 3.24912 3.90932 3.24458 3.92135 3.23977C4.34201 3.07168 4.54674 2.59443 4.37865 2.17377C4.35038 2.10296 3.66675 0.434877 2.01861 0.0245C1.57908 -0.0849703 1.13398 0.182691 1.0245 0.622213C0.915032 1.06179 1.18264 1.50683 1.62222 1.6163C2.43752 1.81928 2.85157 2.77291 2.85534 2.78248C3.01862 3.19105 3.47357 3.39594 3.88499 3.25333Z" fill="#FFBB33"/>
<path d="M21.7556 8.17472C21.7434 8.17051 21.7312 8.16597 21.7192 8.16115C21.2985 7.99307 21.0938 7.51582 21.2619 7.09516C21.2902 7.02435 21.9738 5.35626 23.622 4.94589C24.0615 4.83642 24.5066 5.10408 24.6161 5.5436C24.7256 5.98318 24.458 6.42822 24.0184 6.53769C23.2031 6.74066 22.789 7.69429 22.7853 7.70386C22.6219 8.11243 22.167 8.31732 21.7556 8.17472Z" fill="#FF9933"/>
<path d="M2.36465 7.39042C2.81765 7.39042 3.18487 7.0232 3.18487 6.57021C3.18487 6.11722 2.81765 5.75 2.36465 5.75C1.91166 5.75 1.54443 6.11722 1.54443 6.57021C1.54443 7.0232 1.91166 7.39042 2.36465 7.39042Z" fill="#FF8066"/>
<path d="M21.474 1.64383C21.927 1.64383 22.2942 1.27661 22.2942 0.823626C22.2942 0.370637 21.927 0.00341797 21.474 0.00341797C21.021 0.00341797 20.6538 0.370637 20.6538 0.823626C20.6538 1.27661 21.021 1.64383 21.474 1.64383Z" fill="#FF4D4D"/>
<path d="M26.2963 11.0076C26.7493 11.0076 27.1165 10.6404 27.1165 10.1874C27.1165 9.73441 26.7493 9.36719 26.2963 9.36719C25.8433 9.36719 25.4761 9.73441 25.4761 10.1874C25.4761 10.6404 25.8433 11.0076 26.2963 11.0076Z" fill="#FF4D4D"/>
<path d="M13.2719 23.6253C13.7249 23.6253 14.0921 23.2581 14.0921 22.8051C14.0921 22.3521 13.7249 21.9849 13.2719 21.9849C12.8189 21.9849 12.4517 22.3521 12.4517 22.8051C12.4517 23.2581 12.8189 23.6253 13.2719 23.6253Z" fill="#FF8066"/>
</svg>
