<svg width="183" height="183" viewBox="0 0 183 183" fill="none" xmlns="http://www.w3.org/2000/svg">
<g clip-path="url(#clip0_1426_4452)">
<path d="M161.05 150.957C174.734 134.965 183 114.198 183 91.5005C183 40.9659 142.034 0 91.5005 0C40.967 0 0 40.9659 0 91.5005C0 114.198 8.26559 134.965 21.9502 150.957H161.05Z" fill="#FFCF48"/>
<path d="M149.349 89.4014H33.6511C27.1873 89.4014 21.9482 94.6415 21.9482 101.104V150.955C25.5009 155.107 29.4209 158.936 33.6543 162.395H149.346C153.579 158.937 157.499 155.108 161.052 150.955V101.104C161.052 94.6404 155.812 89.4014 149.349 89.4014Z" fill="#E69F2E"/>
<path d="M33.6509 162.394C49.4156 175.273 69.5556 183 91.4994 183C113.443 183 133.583 175.273 149.348 162.394V101.104H33.6509V162.394Z" fill="#FFF1C7"/>
<path d="M124.176 28.6278C115.19 31.9168 112.523 34.5835 109.234 43.57C105.945 34.5835 103.278 31.9168 94.292 28.6278C103.278 25.3387 105.945 22.672 109.234 13.6855C112.523 22.672 115.19 25.3387 124.176 28.6278Z" fill="#23294D"/>
<path d="M108.898 48.1011C108.184 48.0026 107.528 48.4864 107.406 49.1936C107.048 51.278 106.433 53.2851 105.585 55.1461C104.746 56.9288 103.614 58.6554 102.22 60.2772L101.172 61.4109L99.7599 62.694L98.2418 63.8468L96.6147 64.8705C96.5682 64.8959 96.5205 64.9191 96.4729 64.9435L94.9527 65.7184L94.4478 65.9248C93.6655 66.2466 92.9276 66.5505 92.176 66.7442C92.158 66.7484 92.14 66.7537 92.1231 66.759L91.9431 66.8141C91.526 66.9411 91.1322 67.0607 90.7183 67.1274C90.5204 67.1644 90.3234 67.2057 90.1255 67.246C89.8291 67.3074 89.5327 67.3698 89.2331 67.4164L87.3583 67.6144L86.215 67.626C84.3095 67.6662 82.3553 67.4132 80.3895 66.8606C76.6727 65.82 73.2058 63.6679 70.6239 60.7959C70.5815 60.7482 70.5307 60.6964 70.4831 60.6509C69.8998 60.0834 69.1334 59.7722 68.3214 59.7722C68.3066 59.7722 68.2918 59.7722 68.2769 59.7722C67.448 59.7839 66.6732 60.1173 66.0952 60.7112C64.9032 61.9371 64.9307 63.9061 66.164 65.1065C69.7209 68.565 74.3247 71.0209 79.1287 72.0245C80.905 72.3971 82.6687 72.5835 84.391 72.5835C85.0812 72.5835 85.7662 72.5527 86.4415 72.4935L87.7405 72.3897C87.7786 72.3865 87.8167 72.3823 87.8548 72.376L89.9942 72.0055C90.0154 72.0023 90.0355 71.998 90.0556 71.9938C90.4568 71.9038 90.8453 71.7969 91.2201 71.6932C91.4043 71.6423 91.5885 71.5915 91.7377 71.5524C92.3284 71.4147 92.8641 71.2126 93.3818 71.0167L93.5151 70.967C94.5039 70.6356 95.41 70.1889 96.2876 69.7559L96.7841 69.5124C96.818 69.4955 96.8508 69.4786 96.8836 69.4584L98.4832 68.5036C98.5795 68.4464 98.6758 68.3893 98.769 68.3268C98.7849 68.3162 98.8008 68.3056 98.8156 68.295L100.544 67.0395C100.575 67.0173 100.606 66.993 100.634 66.9675L102.239 65.5702C102.268 65.5458 102.294 65.5204 102.32 65.4929L103.793 63.9632C103.82 63.9357 103.845 63.9071 103.869 63.8775L104.932 62.5616C104.942 62.55 104.951 62.5373 104.961 62.5246C106.435 60.5619 107.604 58.4924 108.439 56.3582C109.258 54.1902 109.796 51.9025 110.039 49.5577C110.112 48.8453 109.607 48.2017 108.898 48.1043V48.1011Z" fill="#23294D"/>
<path d="M105.629 87.5542H101.577C100.13 83.3812 96.1658 80.3843 91.4995 80.3843C86.8332 80.3843 82.8687 83.3812 81.4226 87.5542H77.3714C73.6885 87.5542 70.7021 90.5405 70.7021 94.2234V100.526C70.7021 101.781 71.7195 102.798 72.9739 102.798H110.025C111.28 102.798 112.297 101.781 112.297 100.526V94.2234C112.297 90.5405 109.311 87.5542 105.628 87.5542H105.629Z" fill="#2F396B"/>
<path d="M91.5005 93.8771C93.0633 93.8771 94.3302 92.6102 94.3302 91.0474C94.3302 89.4846 93.0633 88.2178 91.5005 88.2178C89.9378 88.2178 88.6709 89.4846 88.6709 91.0474C88.6709 92.6102 89.9378 93.8771 91.5005 93.8771Z" fill="#E69F2E"/>
<path d="M92.3474 153.565L85.9036 154.983C85.3447 154.554 84.8503 153.983 84.4216 153.275C83.9918 152.566 83.7769 151.74 83.7769 150.794C83.7769 149.847 84.0342 149.119 84.5497 148.604C85.0652 148.088 85.8804 147.68 86.9982 147.379L91.7016 146.219C93.7204 145.661 95.2554 144.888 96.3087 143.899C97.3609 142.911 97.8871 141.58 97.8871 139.904C97.8871 138.444 97.3069 137.156 96.1478 136.038C94.9875 134.921 93.1191 134.363 90.5414 134.363C88.8233 134.363 87.1359 134.611 85.4834 135.104C83.8288 135.599 82.5087 136.21 81.521 136.941C80.9621 136.512 80.4899 135.974 80.1036 135.33C79.7172 134.685 79.5234 133.977 79.5234 133.203C79.5234 131.443 80.6403 130.067 82.8739 129.08C85.1076 128.092 87.9425 127.598 91.3798 127.598C94.5154 127.598 97.1894 128.124 99.4019 129.176C101.614 130.229 103.31 131.679 104.493 133.526C105.674 135.373 106.265 137.5 106.265 139.905C106.265 143.557 105.105 146.488 102.785 148.701C100.466 150.913 96.9862 152.535 92.3463 153.566L92.3474 153.565ZM84.5497 164.326C84.5497 162.908 84.9901 161.748 85.8708 160.846C86.7505 159.944 87.9214 159.493 89.3822 159.493C90.8431 159.493 92.0129 159.944 92.8936 160.846C93.7733 161.748 94.2148 162.908 94.2148 164.326C94.2148 165.743 93.7733 166.839 92.8936 167.741C92.0129 168.643 90.842 169.094 89.3822 169.094C87.9224 169.094 86.7505 168.643 85.8708 167.741C84.9901 166.839 84.5497 165.701 84.5497 164.326Z" fill="#2F396B"/>
</g>
<defs>
<clipPath id="clip0_1426_4452">
<rect width="183" height="183" fill="white"/>
</clipPath>
</defs>
</svg>
