<svg width="28" height="28" viewBox="0 0 28 28" fill="none" xmlns="http://www.w3.org/2000/svg">
<path d="M19.6832 21.0942C18.7985 21.9572 9.41724 26.1005 2.34959 27.7973C1.70519 27.9534 1.02404 27.7689 0.554532 27.3111C0.0850275 26.8534 -0.104193 26.1892 0.0558759 25.561C1.79621 18.67 6.0462 9.52364 6.93084 8.66064L19.6832 21.0942Z" fill="#F0C419"/>
<path d="M19.6791 21.0933C20.6057 20.1899 18.5025 16.6746 14.9816 13.2417C11.4606 9.80879 7.85523 7.75821 6.92867 8.66161C6.0021 9.56501 8.10526 13.0803 11.6262 16.5132C15.1471 19.9462 18.7525 21.9967 19.6791 21.0933Z" fill="#D25627"/>
<path d="M4.91745 23.9832C5.44167 23.9832 5.86664 23.5689 5.86664 23.0578C5.86664 22.5467 5.44167 22.1323 4.91745 22.1323C4.39323 22.1323 3.96826 22.5467 3.96826 23.0578C3.96826 23.5689 4.39323 23.9832 4.91745 23.9832Z" fill="#955BA5"/>
<path d="M10.9576 13.0507C10.7655 13.0508 10.5922 12.938 10.5187 12.7649C10.4453 12.5918 10.4861 12.3926 10.6221 12.2603L13.6424 9.31596C15.2669 7.73157 15.4739 6.52061 14.3139 5.38923C13.827 4.83351 13.0831 4.55823 12.3406 4.65904C11.817 4.76714 11.3366 5.02074 10.9576 5.38923C10.7714 5.56459 10.4754 5.56208 10.2923 5.38359C10.1093 5.2051 10.1067 4.9165 10.2865 4.73493C10.8025 4.23102 11.4599 3.88741 12.1759 3.74746C13.2239 3.58617 14.2837 3.95871 14.985 4.73493C16.5436 6.25454 16.3177 8.01615 14.3135 9.97027L11.2941 12.9151C11.2049 13.0021 11.0838 13.0509 10.9576 13.0507Z" fill="#955BA5"/>
<path d="M23.3744 17.9582C23.1824 17.9582 23.0094 17.8454 22.936 17.6725C22.8625 17.4997 22.9031 17.3007 23.0388 17.1683C23.5215 16.7549 23.7982 16.1588 23.7982 15.5323C23.7982 14.9059 23.5215 14.3098 23.0388 13.8964C22.5504 13.3189 21.7666 13.0639 21.0204 13.2397C20.246 13.5003 19.554 13.9519 19.0119 14.5507L16.3271 17.1683C16.1418 17.349 15.8414 17.349 15.656 17.1683C15.4708 16.9876 15.4708 16.6947 15.656 16.514L18.3408 13.8964C18.9996 13.1794 19.8405 12.6443 20.7788 12.3448C21.8513 12.077 22.9868 12.4246 23.7099 13.2421C25.5641 15.0495 24.5827 16.9721 23.7099 17.8231C23.6211 17.9101 23.5002 17.9588 23.3744 17.9582Z" fill="#FF5364"/>
<path d="M17.3344 9.4516C17.1427 9.45156 16.9699 9.3391 16.8963 9.16654C16.8227 8.99398 16.8628 8.79519 16.9979 8.66264C17.1222 8.54048 20.0172 5.63777 17.6348 2.73414C17.5184 2.60617 17.4839 2.42602 17.5451 2.26571C17.6062 2.1054 17.7531 1.99108 17.927 1.96844C18.1009 1.9458 18.2734 2.01853 18.3756 2.15757C21.2925 5.71181 17.7065 9.28363 17.6694 9.31787C17.5805 9.40421 17.4599 9.45235 17.3344 9.4516Z" fill="#F0C419"/>
<path d="M22.3051 10.7041C23.0915 10.7041 23.7289 10.0826 23.7289 9.31593C23.7289 8.54925 23.0915 7.92773 22.3051 7.92773C21.5188 7.92773 20.8813 8.54925 20.8813 9.31593C20.8813 10.0826 21.5188 10.7041 22.3051 10.7041Z" fill="#FF5364"/>
<path d="M15.1855 2.85092C15.7097 2.85092 16.1347 2.43658 16.1347 1.92546C16.1347 1.41434 15.7097 1 15.1855 1C14.6613 1 14.2363 1.41434 14.2363 1.92546C14.2363 2.43658 14.6613 2.85092 15.1855 2.85092Z" fill="#3B97D3"/>
<path d="M26.5766 19.5091C27.1009 19.5091 27.5258 19.0948 27.5258 18.5837C27.5258 18.0725 27.1009 17.6582 26.5766 17.6582C26.0524 17.6582 25.6274 18.0725 25.6274 18.5837C25.6274 19.0948 26.0524 19.5091 26.5766 19.5091Z" fill="#955BA5"/>
<path d="M22.3052 3.77638C22.043 3.77638 21.8306 3.5692 21.8306 3.31365V2.85091C21.8306 2.59536 22.043 2.38818 22.3052 2.38818C22.5673 2.38818 22.7798 2.59536 22.7798 2.85091V3.31365C22.7798 3.5692 22.5673 3.77638 22.3052 3.77638Z" fill="#955BA5"/>
<path d="M23.7285 4.70232H23.2539C22.9918 4.70232 22.7793 4.49515 22.7793 4.23959C22.7793 3.98403 22.9918 3.77686 23.2539 3.77686H23.7285C23.9906 3.77686 24.2031 3.98403 24.2031 4.23959C24.2031 4.49515 23.9906 4.70232 23.7285 4.70232Z" fill="#955BA5"/>
<path d="M22.3052 6.09034C22.043 6.09034 21.8306 5.88317 21.8306 5.62761V5.16488C21.8306 4.90932 22.043 4.70215 22.3052 4.70215C22.5673 4.70215 22.7798 4.90932 22.7798 5.16488V5.62761C22.7798 5.88317 22.5673 6.09034 22.3052 6.09034Z" fill="#955BA5"/>
<path d="M21.3559 4.70232H20.8813C20.6192 4.70232 20.4067 4.49515 20.4067 4.23959C20.4067 3.98403 20.6192 3.77686 20.8813 3.77686H21.3559C21.618 3.77686 21.8305 3.98403 21.8305 4.23959C21.8305 4.49515 21.618 4.70232 21.3559 4.70232Z" fill="#955BA5"/>
<path d="M26.102 11.6431C25.8399 11.6431 25.6274 11.4359 25.6274 11.1803V10.7176C25.6274 10.4621 25.8399 10.2549 26.102 10.2549C26.3641 10.2549 26.5766 10.4621 26.5766 10.7176V11.1803C26.5766 11.4359 26.3641 11.6431 26.102 11.6431Z" fill="#3B97D3"/>
<path d="M27.5254 12.5685H27.0508C26.7887 12.5685 26.5762 12.3614 26.5762 12.1058C26.5762 11.8502 26.7887 11.6431 27.0508 11.6431H27.5254C27.7875 11.6431 28 11.8502 28 12.1058C28 12.3614 27.7875 12.5685 27.5254 12.5685Z" fill="#3B97D3"/>
<path d="M26.102 13.957C25.8399 13.957 25.6274 13.7499 25.6274 13.4943V13.0316C25.6274 12.776 25.8399 12.5688 26.102 12.5688C26.3641 12.5688 26.5766 12.776 26.5766 13.0316V13.4943C26.5766 13.7499 26.3641 13.957 26.102 13.957Z" fill="#3B97D3"/>
<path d="M25.1518 12.5685H24.6772C24.4151 12.5685 24.2026 12.3614 24.2026 12.1058C24.2026 11.8502 24.4151 11.6431 24.6772 11.6431H25.1518C25.4139 11.6431 25.6264 11.8502 25.6264 12.1058C25.6264 12.3614 25.4139 12.5685 25.1518 12.5685Z" fill="#3B97D3"/>
<path d="M15.9071 23.045C14.6779 23.591 13.2256 24.1926 11.6689 24.7941C11.4364 24.6553 11.1896 24.498 10.9333 24.3268C9.98756 23.7056 9.08395 23.0255 8.22813 22.2908C7.80574 21.9206 7.36912 21.5273 6.92774 21.0969C6.41993 20.6033 5.95799 20.119 5.54193 19.6439C4.65601 18.6521 3.85147 17.5938 3.13574 16.4789C3.75271 14.9611 4.36969 13.5452 4.93445 12.3467C5.43738 13.2992 6.01327 14.2134 6.65723 15.0814C7.42682 16.1304 8.27384 17.1233 9.19156 18.0521C9.32444 18.1956 9.46682 18.3344 9.61394 18.4779C10.3506 19.1974 11.1286 19.8757 11.9442 20.5093C13.1752 21.4811 14.5028 22.3306 15.9071 23.045Z" fill="#FF5364"/>
<path d="M11.9451 20.5089C11.3894 21.7166 11.0476 23.0074 10.9342 24.3264C9.98843 23.7052 9.08482 23.0251 8.229 22.2904C8.26215 20.8296 8.5895 19.3894 9.19243 18.0518C9.32532 18.1952 9.46769 18.334 9.61482 18.4775C10.3515 19.1971 11.1295 19.8753 11.9451 20.5089Z" fill="#955BA5"/>
<path d="M9.19259 18.0523C8.58967 19.3899 8.26232 20.8301 8.22917 22.2909C7.80678 21.9207 7.37015 21.5274 6.92878 21.097C6.42097 20.6035 5.95903 20.1191 5.54297 19.6441C5.59213 18.065 5.97165 16.5124 6.65826 15.0815C7.42786 16.1305 8.27488 17.1234 9.19259 18.0523Z" fill="#B49ACA"/>
<path d="M5.19578 27.0243C4.22287 27.3158 3.26419 27.5749 2.34822 27.797C1.7042 27.9531 1.02337 27.7688 0.554115 27.3113C0.0848596 26.8538 -0.104191 26.19 0.0559335 25.562C0.283738 24.669 0.549511 23.7342 0.848505 22.7856C2.13508 24.3485 3.59281 25.7698 5.19578 27.0243Z" fill="#FF5364"/>
</svg>
