<svg width="28" height="28" viewBox="0 0 28 28" fill="none" xmlns="http://www.w3.org/2000/svg">
<path d="M12.9367 7.57481C11.5576 7.64923 10.4193 8.17295 9.7559 9.01769L8.91455 8.73983C9.53185 7.8125 10.5525 7.16112 11.8091 6.87842L12.9367 7.57481Z" fill="#FFF9E2"/>
<path d="M6.34648 15.2112L9.60344 11.6003L10.1582 10.6394C10.574 9.91934 10.3272 8.99855 9.6071 8.58283C8.88699 8.16705 7.9662 8.41381 7.55048 9.13387L4.56445 14.3058C4.90023 14.2254 6.34812 15.2107 6.34648 15.2112Z" fill="#FFE07D"/>
<path d="M14.105 6.78955C15.9855 7.03192 17.6965 8.03468 18.6459 9.39828C18.7792 9.58978 18.732 9.85316 18.5405 9.98645C18.467 10.0377 18.3828 10.0622 18.2995 10.0622C18.1659 10.0622 18.0345 9.99902 17.9524 9.8811C17.2786 8.91333 16.1442 8.15361 14.8402 7.79676L14.105 6.78955Z" fill="#FFF9E2"/>
<path d="M19.3519 12.3164L19.9105 11.9938C19.3605 11.7397 18.4327 10.1335 18.4871 9.53097L17.9295 9.85294C17.4362 10.1377 16.8381 10.0765 16.4163 9.7446L16.0634 9.45068C15.1656 9.96899 14.858 11.117 15.3763 12.0148L16.2021 13.445C16.7204 14.3428 17.8684 14.6503 18.7662 14.132C18.7662 14.132 18.7092 13.8224 18.6888 13.679C18.6132 13.1484 18.8592 12.6008 19.3519 12.3164Z" fill="#F1B986"/>
<path d="M20.719 6.8374L19.3975 7.73588C18.3028 8.48022 18.3242 10.3472 18.7221 11.0363C19.1199 11.7253 20.7261 12.6775 21.918 12.1016L23.3569 11.4064L20.719 6.8374Z" fill="#F1D0A5"/>
<path d="M24.1789 11.0094C25.6085 10.3187 26.1437 8.55111 25.3306 7.1817C24.5216 5.81922 22.7601 5.44993 21.4497 6.34086L22.0371 9.1226L24.1525 11.0222L24.1789 11.0094Z" fill="#DD636E"/>
<path d="M21.4498 6.34082L20.6647 6.87462C20.2834 7.13389 20.1668 7.64341 20.3974 8.04274L20.8348 8.80037C21.0779 9.22138 21.6162 9.36567 22.0372 9.12257L22.8012 8.6815L21.4498 6.34082Z" fill="#D3EFFB"/>
<path d="M24.1523 11.0223L22.8009 8.68164L22.037 9.12271C21.6159 9.36581 21.4717 9.90418 21.7148 10.3252L22.1522 11.0828C22.3827 11.4821 22.8823 11.6359 23.2975 11.4353L24.1523 11.0223Z" fill="#B1E4F9"/>
<path d="M15.9084 9.05762L15.4334 8.23486L13.2915 4.52505C13.054 4.1135 12.5696 3.91288 12.1106 4.03587L3.14619 6.43784C2.88382 6.50815 2.71481 6.76697 2.76241 7.0344C2.89847 7.79795 3.653 8.26629 4.38607 8.0699L4.72095 7.98015C4.7263 7.97869 4.73205 7.98026 4.73599 7.98421C4.73993 7.98815 4.74146 7.9939 4.74005 7.99925C4.61858 8.45249 4.89819 8.91874 5.36134 9.02122C5.79762 9.11773 6.22912 8.83401 6.34478 8.40235L6.59227 7.47874L9.67537 6.92381C10.3724 6.79835 11.0074 6.4948 11.5304 6.06015C11.6034 5.99948 11.7131 6.0535 11.7106 6.14843C11.6963 6.68933 11.8262 7.2388 12.112 7.73655C12.1002 7.71576 12.0784 7.677 12.3462 8.13993C12.7231 8.79136 12.5971 9.59576 12.0883 10.1031L12.4104 11.8255L15.9084 9.05762Z" fill="#F1B986"/>
<path d="M18.6883 13.6791C18.3247 13.9436 17.877 14.0258 17.4507 13.9115C17.0754 13.811 16.7617 13.5703 16.5674 13.2338L15.7417 11.8036C15.3146 11.0637 15.6134 10.1006 16.4158 9.74466C16.302 9.6552 16.2011 9.54601 16.1185 9.41863C16.1056 9.3988 16.0933 9.37858 16.0813 9.3579L15.9079 9.05762C15.8887 9.06517 15.8699 9.07424 15.8516 9.08489L13.4096 10.4947C12.9581 10.7553 12.3787 10.6002 12.118 10.1486C12.1088 10.1326 12.0987 10.1174 12.0877 10.1031C11.9898 10.2008 11.8776 10.2874 11.7522 10.3599L3.23145 15.2793L16.6225 15.768L19.0598 14.4355C18.8472 14.2119 18.7265 13.9477 18.6883 13.6791Z" fill="#707DD3"/>
<path d="M11.1632 14.8011C11.0893 14.8011 11.0145 14.7817 10.9465 14.7411C8.97302 13.5597 7.96885 11.5648 8.44789 9.77716C8.50823 9.55175 8.73989 9.41801 8.96541 9.47835C9.19082 9.53874 9.32457 9.77046 9.26417 9.99587C8.78575 11.7816 10.2559 13.8781 12.8078 14.6391L11.1632 14.8011Z" fill="#FFF9E2"/>
<path d="M28 13.8463C28 13.7882 27.952 13.7416 27.8939 13.7425C26.2492 13.7693 26.2138 14.4178 24.4998 14.4178C22.7497 14.4178 22.7497 13.7417 20.9995 13.7417C19.2495 13.7417 19.2495 14.4178 17.4995 14.4178C15.7495 14.4178 15.7495 13.7417 13.9995 13.7417C12.2496 13.7417 12.2496 14.4178 10.4998 14.4178C8.7498 14.4178 8.7498 13.7417 6.99983 13.7417C5.24986 13.7417 5.24986 14.4178 3.49983 14.4178C1.78603 14.4178 1.75065 13.7693 0.106141 13.7425C0.048 13.7416 0 13.7882 0 13.8463V24.3141C0 24.3713 0.0464225 24.4178 0.103662 24.4178H27.8963C27.9536 24.4178 28 24.3713 28 24.314V13.8463Z" fill="#D3EFFB"/>
<path d="M27.8939 13.7422C26.7807 13.7603 26.4047 14.0632 25.7465 14.2571V17.9871C25.7465 20.9162 23.372 23.2907 20.4429 23.2907H0V24.3138C0 24.371 0.0464225 24.4174 0.103662 24.4174H27.8963C27.9535 24.4174 28 24.371 28 24.3137V13.8459C28 13.7878 27.952 13.7412 27.8939 13.7422Z" fill="#B1E4F9"/>
<path d="M10.4996 18.2326C9.54582 18.2326 9.04194 18.0379 8.59732 17.8661C8.1852 17.7069 7.7958 17.5565 6.99963 17.5565C6.20346 17.5565 5.81411 17.7069 5.40199 17.8661C4.95737 18.0378 4.45349 18.2326 3.49968 18.2326C3.26628 18.2326 3.07715 18.0434 3.07715 17.81C3.07715 17.5767 3.26628 17.3875 3.49968 17.3875C4.29591 17.3875 4.68526 17.2371 5.09737 17.0778C5.54199 16.9061 6.04588 16.7114 6.99963 16.7114C7.95343 16.7114 8.45732 16.9061 8.90194 17.0778C9.31405 17.2371 9.70346 17.3875 10.4996 17.3875C11.2957 17.3875 11.685 17.2371 12.0971 17.0778C12.5418 16.9061 13.0456 16.7114 13.9993 16.7114C14.2328 16.7114 14.4219 16.9006 14.4219 17.134C14.4219 17.3673 14.2328 17.5565 13.9993 17.5565C13.2032 17.5565 12.8139 17.7069 12.4018 17.8661C11.9571 18.0378 11.4533 18.2326 10.4996 18.2326Z" fill="#B1E4F9"/>
<path d="M24.4997 21.6251C23.5459 21.6251 23.042 21.4305 22.5974 21.2587C22.1851 21.0995 21.7957 20.9491 20.9995 20.9491C20.2033 20.9491 19.8139 21.0995 19.4017 21.2587C18.9571 21.4305 18.4533 21.6251 17.4995 21.6251C16.5457 21.6251 16.0418 21.4304 15.5971 21.2587C15.185 21.0994 14.7956 20.9491 13.9995 20.9491C13.2033 20.9491 12.814 21.0994 12.4019 21.2587C11.9573 21.4304 11.4534 21.6251 10.4997 21.6251C10.2663 21.6251 10.0771 21.4359 10.0771 21.2026C10.0771 20.9692 10.2663 20.7801 10.4997 20.7801C11.2959 20.7801 11.6851 20.6297 12.0973 20.4704C12.5419 20.2987 13.0457 20.104 13.9995 20.104C14.9533 20.104 15.4571 20.2987 15.9018 20.4704C16.3139 20.6297 16.7033 20.7801 17.4995 20.7801C18.2956 20.7801 18.685 20.6297 19.0971 20.4704C19.5418 20.2987 20.0457 20.104 20.9995 20.104C21.9534 20.104 22.4573 20.2987 22.9019 20.4704C23.3141 20.6296 23.7035 20.7801 24.4997 20.7801C24.7331 20.7801 24.9223 20.9692 24.9223 21.2026C24.9223 21.4359 24.7331 21.6251 24.4997 21.6251Z" fill="#B1E4F9"/>
<path d="M24.4999 21.6256C24.7333 21.6256 24.9224 21.4364 24.9224 21.2031C24.9224 21.1096 24.892 21.0231 24.8406 20.9531C24.68 21.1908 24.5006 21.4147 24.3047 21.6228C24.3676 21.6247 24.4326 21.6256 24.4999 21.6256Z" fill="#90D8F9"/>
</svg>
